<svg xmlns="http://www.w3.org/2000/svg" xmlns:xlink="http://www.w3.org/1999/xlink" viewBox="0 0 216 216"><defs><style>.cls-1{fill:none;}.cls-2{isolation:isolate;}.cls-3{fill:#fff;}.cls-4{fill:#003003;}.cls-5{fill:#c3db7f;}.cls-6{fill:#b0c773;}.cls-7{fill:#fff200;}.cls-8{fill:#f58220;}.cls-11,.cls-9{opacity:0.4;}.cls-10{clip-path:url(#clip-path);}.cls-11{fill:#231f20;mix-blend-mode:multiply;}.cls-12{fill:#f7941d;}.cls-13{fill:#8b8283;}.cls-14{fill:#d82f28;}.cls-15{fill:#9c1421;}.cls-16{fill:#008a43;}.cls-17{fill:#00a651;}.cls-18{fill:#dcddde;}.cls-19{fill:#7ac143;}.cls-20{fill:#add136;}.cls-21{fill:#006d33;}.cls-22{fill:#43b649;}.cls-23{fill:#004520;}.cls-24{font-size:9px;fill:#8dc63f;font-family:ObelixPro-Bold, ObelixPro;font-weight:700;}</style><clipPath id="clip-path" transform="translate(-4.5 -4.5)"><path class="cls-1" d="M187.83,112.5A75.34,75.34,0,1,1,112.5,37.17,75.32,75.32,0,0,1,187.83,112.5Z"/></clipPath></defs><g class="cls-2"><g id="Layer_1" data-name="Layer 1"><circle class="cls-3" cx="112.5" cy="112.5" r="108" transform="translate(-38.99 47.11) rotate(-22.5)"/><circle class="cls-4" cx="112.5" cy="112.5" r="102.91" transform="translate(-6.48 -2.48) rotate(-1.02)"/><circle class="cls-4" cx="112.5" cy="112.5" r="94.21" transform="translate(-51.1 108) rotate(-45)"/><path class="cls-3" d="M190.34,112.36a77.71,77.71,0,1,1-77.71-77.7A77.71,77.71,0,0,1,190.34,112.36Z" transform="translate(-4.5 -4.5)"/><path class="cls-5" d="M187.83,112.5A75.34,75.34,0,1,1,112.5,37.17,75.32,75.32,0,0,1,187.83,112.5Z" transform="translate(-4.5 -4.5)"/><path class="cls-6" d="M166.4,59.88a64.25,64.25,0,1,1-107.81,0,75.34,75.34,0,1,0,107.81,0Z" transform="translate(-4.5 -4.5)"/><path class="cls-3" d="M166.73,148.91l-1,.72-.47.32,1.24,1.18.47-.33,1-.74,1.47-1.08-1.31-1.13Z" transform="translate(-4.5 -4.5)"/><path class="cls-3" d="M172.71,144.27c-.25.21-.58.5-.93.77l-1.39,1.1,1.35,1.09,1.42-1.12c.36-.28.69-.57,1-.79l.43-.36-1.41-1Z" transform="translate(-4.5 -4.5)"/><path class="cls-3" d="M175.66,141.77l-.41.36,1.45,1,.42-.36L178,142l1.32-1.18-1.5-1-1.3,1.17Z" transform="translate(-4.5 -4.5)"/><path class="cls-3" d="M151.46,157.85l-.38.16-1.15.47-1.15.47-.53.2.58,1.52.56-.21,1.2-.49,1.21-.49.39-.17.15-.07-.74-1.46Z" transform="translate(-4.5 -4.5)"/><path class="cls-3" d="M156.91,155.17c-.29.17-.7.37-1.1.57l-1.61.83.86,1.4,1.67-.86c.41-.21.84-.42,1.14-.59l.51-.29-1-1.34Z" transform="translate(-4.5 -4.5)"/><path class="cls-3" d="M162.77,151.65a2.54,2.54,0,0,1-.34.22l-1,.66-1.53.95,1.07,1.29,1.57-1,1.08-.67.35-.23.13-.09-1.16-1.22Z" transform="translate(-4.5 -4.5)"/><path class="cls-3" d="M132.46,162.47l-1.2,0c-.87,0-1.74,0-1.74,0l-.42,1.71s.9,0,1.82,0l1.25,0,.58,0,.25-1.7Z" transform="translate(-4.5 -4.5)"/><path class="cls-3" d="M138.73,161.76l-1.2.19c-.44.07-.88.14-1.21.17l-.54.06-.11,1.69.58-.07c.35,0,.81-.1,1.27-.18l1.28-.2.57-.1-.09-1.66S139.06,161.71,138.73,161.76Z" transform="translate(-4.5 -4.5)"/><path class="cls-3" d="M143.77,160.62l-1.74.44.25,1.62,1.84-.47,1.81-.55-.43-1.57Z" transform="translate(-4.5 -4.5)"/><path class="cls-3" d="M112.13,162.53l1.7.21.74-1.68-1.73-.22-1.77-.19-.64,1.69Z" transform="translate(-4.5 -4.5)"/><path class="cls-3" d="M118.23,163.35l1.71.22.73-1.68-1.7-.22-1.69-.23-.76,1.67Z" transform="translate(-4.5 -4.5)"/><path class="cls-3" d="M126.21,162.42l-1.17-.08-1.17-.1-.53-.05-.66,1.69.54.05c.33,0,.77.08,1.21.1l1.22.09c.33,0,.55,0,.55,0l.55-1.7Z" transform="translate(-4.5 -4.5)"/><polygon class="cls-3" points="90.56 159.95 90.15 158.37 86.58 159.49 87.01 161.06 90.56 159.95"/><path class="cls-3" d="M99.64,163.18c.89-.22,1.77-.39,1.77-.39l-.12-1.65s-1,.18-1.88.41-1.86.48-1.86.48l.32,1.6S98.76,163.39,99.64,163.18Z" transform="translate(-4.5 -4.5)"/><path class="cls-3" d="M105.94,162.21l1.19,0a4.91,4.91,0,0,1,.54,0l.46-1.71h-.59c-.36,0-.84,0-1.32,0-1,0-1.92.16-1.92.16l-.11,1.68S105.07,162.25,105.94,162.21Z" transform="translate(-4.5 -4.5)"/><path class="cls-3" d="M72.39,168.09c.32,0,.75.14,1.2.18s.89.11,1.23.13l.56,0,.56-1.7-.52,0c-.3,0-.7-.07-1.11-.11s-.79-.12-1.09-.17l-.49-.08L71.85,168Z" transform="translate(-4.5 -4.5)"/><path class="cls-3" d="M78.89,168.4c.35,0,.82-.07,1.29-.12s.93-.12,1.28-.17l.59-.09,0-1.67-.54.09c-.32,0-.75.11-1.18.15l-1.17.11-.53,0-.28,1.7Z" transform="translate(-4.5 -4.5)"/><path class="cls-3" d="M85.54,167.29,86.8,167c.92-.24,1.82-.51,1.82-.51l-.38-1.59-1.75.5-1.2.31-.55.13.23,1.62Z" transform="translate(-4.5 -4.5)"/><path class="cls-3" d="M63.64,158.77c-.1-.23-.21-.55-.31-.87-.22-.63-.4-1.28-.4-1.28l-2.1.67s.18.68.42,1.34c.1.33.22.66.32.9l.16.41,2.06-.79Z" transform="translate(-4.5 -4.5)"/><path class="cls-3" d="M62.9,162.36c.13.23.34.53.54.83a8.74,8.74,0,0,0,.6.8l.21.26.08.1,1.84-1.15-.08-.09-.18-.23a6.54,6.54,0,0,1-.54-.71c-.18-.28-.37-.55-.49-.76l-.2-.36-2,.92S62.77,162.13,62.9,162.36Z" transform="translate(-4.5 -4.5)"/><path class="cls-3" d="M67,166.46l1,.43,1.2.41,1.11-1.59-1.1-.39-.77-.34c-.25-.13-.47-.29-.71-.43l-1.55,1.39C66.45,166.11,66.72,166.31,67,166.46Z" transform="translate(-4.5 -4.5)"/><polygon class="cls-3" points="54.12 137.91 54.37 140.7 56.51 140.25 56.26 137.47 54.12 137.91"/><path class="cls-3" d="M59.09,147.41l.16,1.39.18,1.38,2.14-.49-.18-1.37-.16-1.38Z" transform="translate(-4.5 -4.5)"/><path class="cls-3" d="M59.75,152.36s.13.69.25,1.38l.28,1.37,2.12-.6-.28-1.33-.24-1.35Z" transform="translate(-4.5 -4.5)"/><path class="cls-3" d="M56.19,127.76a2.74,2.74,0,0,0,.12.43c.09.24.2.58.31.91.23.63.39,1.28.39,1.28l2.11-.65s-.18-.69-.42-1.38c-.11-.31-.22-.63-.29-.87a2.41,2.41,0,0,1-.12-.39Z" transform="translate(-4.5 -4.5)"/><path class="cls-3" d="M57.48,132.49s0,.17.08.42.1.6.15.94c.1.68.19,1.37.19,1.37l2.14-.49-.2-1.4c-.05-.35-.11-.7-.15-1s-.08-.44-.08-.44Z" transform="translate(-4.5 -4.5)"/><polygon class="cls-3" points="53.65 132.89 53.92 135.66 56.06 135.22 55.79 132.43 53.65 132.89"/><path class="cls-3" d="M57.64,113.6c-.15.37-.28.73-.39,1s-.16.46-.16.46l2.06.15a4.45,4.45,0,0,1,.16-.43c.1-.26.22-.61.36-1s.29-.69.4-.95l.2-.43-2-.29-.21.45C57.94,112.88,57.79,113.24,57.64,113.6Z" transform="translate(-4.5 -4.5)"/><path class="cls-3" d="M56.26,117.85c-.08.28-.16.64-.23,1s-.15.74-.18,1-.07.46-.07.46l2.13-.14s0-.17.07-.43a8.8,8.8,0,0,1,.17-1c.06-.35.14-.7.21-1s.11-.43.11-.43l-2.1,0S56.32,117.57,56.26,117.85Z" transform="translate(-4.5 -4.5)"/><path class="cls-3" d="M55.58,122.64s0,.18,0,.45,0,.64,0,1c0,.72.14,1.43.14,1.43l2.13-.5s-.09-.66-.12-1.33c0-.33,0-.67,0-.92v-.42Z" transform="translate(-4.5 -4.5)"/><path class="cls-3" d="M69.69,98.62l.36-.39-1.64-.82-.38.4-.79.89c-.57.65-1.12,1.3-1.12,1.3l1.72.74s.53-.64,1.08-1.26Z" transform="translate(-4.5 -4.5)"/><path class="cls-3" d="M64.57,105l.65-.91.67-.89.31-.41-1.78-.67s-.12.17-.32.42l-.69.93-.67.94-.3.43,1.85.57Z" transform="translate(-4.5 -4.5)"/><path class="cls-3" d="M60.18,108.42c-.41.7-.78,1.42-.78,1.42l2,.38s.35-.68.75-1.36c.19-.34.39-.68.55-.93l.25-.42L61,107l-.27.44C60.59,107.72,60.38,108.06,60.18,108.42Z" transform="translate(-4.5 -4.5)"/><path class="cls-3" d="M82.84,87.17l1-.68.46-.31L83.17,85l-.49.31c-.28.2-.67.46-1.05.71L80.13,87l1.26,1.16S82.11,87.67,82.84,87.17Z" transform="translate(-4.5 -4.5)"/><path class="cls-3" d="M76.86,91.72l.93-.76,1.37-1.1-1.35-1.09L76.4,89.9l-1,.79-.42.37,1.43,1Z" transform="translate(-4.5 -4.5)"/><path class="cls-3" d="M73.16,95.06l.86-.81.39-.36-1.5-1-.41.38-.89.84c-.64.61-1.25,1.23-1.25,1.23l1.58.89S72.54,95.65,73.16,95.06Z" transform="translate(-4.5 -4.5)"/><path class="cls-3" d="M100.17,79l1.17-.26c.32-.07.54-.1.54-.1L101.8,77s-.24,0-.59.11-.81.16-1.28.28c-.93.22-1.85.49-1.85.49l.38,1.59S99.31,79.2,100.17,79Z" transform="translate(-4.5 -4.5)"/><path class="cls-3" d="M93,81.47c.3-.15.72-.32,1.13-.49l1.15-.45.52-.2L95.2,78.8l-.55.22c-.34.13-.78.29-1.22.48s-.88.36-1.21.51l-.54.24.78,1.44Z" transform="translate(-4.5 -4.5)"/><path class="cls-3" d="M87.25,84.38l1.08-.61c.38-.22.79-.42,1.08-.58l.5-.26L89,81.55l-.52.27-1.14.62c-.41.23-.82.45-1.12.63l-.5.3,1,1.29Z" transform="translate(-4.5 -4.5)"/><path class="cls-3" d="M118.27,79.84c.44.06.89.1,1.23.13l.56,0,.61-1.7-.52,0c-.32,0-.74-.06-1.17-.12-.84-.1-1.68-.23-1.68-.23l-.77,1.68S117.38,79.74,118.27,79.84Z" transform="translate(-4.5 -4.5)"/><polygon class="cls-3" points="109.32 74.66 110.14 72.99 106.8 72.4 105.97 74.07 109.32 74.66"/><path class="cls-3" d="M105.15,78.23c.32,0,.74,0,1.15,0h.61l.52,0,.51,0,.59-1.7-.57,0-.59,0h-.68c-.46,0-.93,0-1.28,0l-.59,0-.2,1.7S104.84,78.24,105.15,78.23Z" transform="translate(-4.5 -4.5)"/><path class="cls-3" d="M138.23,77c.44-.12.87-.21,1.19-.29l.54-.13L139.77,75l-.57.14c-.35.08-.82.18-1.27.31l-1.81.5.35,1.6Z" transform="translate(-4.5 -4.5)"/><path class="cls-3" d="M131.75,78.78c.93-.22,1.84-.47,1.84-.47l-.3-1.61s-.9.25-1.79.46-1.78.41-1.78.41l.18,1.64S130.84,79,131.75,78.78Z" transform="translate(-4.5 -4.5)"/><path class="cls-3" d="M123.67,80.09c.36,0,.84,0,1.33-.08,1-.08,1.92-.24,1.92-.24V78.1s-.89.14-1.76.21-1.74.1-1.74.1l-.36,1.71Z" transform="translate(-4.5 -4.5)"/><path class="cls-3" d="M150.8,82.05c.15.31.29.63.41.87l.19.39,2-.86s-.07-.16-.19-.39-.25-.54-.39-.86l-.6-1.25-2,.87Z" transform="translate(-4.5 -4.5)"/><path class="cls-3" d="M147.84,77.47c.17.16.4.37.62.6s.39.47.53.66.21.31.21.31L151.1,78s-.1-.16-.26-.39-.42-.51-.66-.8-.56-.54-.77-.74l-.4-.29-1.5,1.48Z" transform="translate(-4.5 -4.5)"/><path class="cls-3" d="M144.09,76.13c.38,0,.76.06,1,.1l.44.1,1.05-1.67-.54-.13c-.34,0-.8-.1-1.27-.13s-.94,0-1.31,0l-.6,0-.37,1.72A11.79,11.79,0,0,1,144.09,76.13Z" transform="translate(-4.5 -4.5)"/><polygon class="cls-3" points="154.03 91.95 156.03 91.05 154.7 88.61 152.7 89.53 154.03 91.95"/><polygon class="cls-3" points="151.63 87.62 153.62 86.69 152.27 84.27 150.28 85.2 151.63 87.62"/><path class="cls-3" d="M153.06,86.55l.66,1.23,2-.92-.66-1.21-.64-1.22-2,.89S152.73,85.94,153.06,86.55Z" transform="translate(-4.5 -4.5)"/><polygon class="cls-3" points="60.32 144.04 57.96 143.13 55.8 148.77 50.17 146.6 49.26 148.97 54.89 151.13 52.73 156.76 55.09 157.67 57.26 152.03 62.89 154.2 63.79 151.84 58.16 149.67 60.32 144.04"/><polygon class="cls-3" points="122.4 69.05 120.24 67.4 115.31 71.34 110.17 67.41 108.1 69.06 113.25 72.99 108.32 76.92 110.48 78.57 115.41 74.63 120.55 78.56 122.62 76.91 117.47 72.98 122.4 69.05"/><rect class="cls-4" x="88.1" y="28.18" width="54.08" height="26.61"/><path class="cls-3" d="M188.67,94.68c-.6-2.35-1.3-4.67-2.07-7-1.47-4.36-3.16-8.64-4.62-13-.54-.92-1.1-1.82-1.71-2.68.46.74-1.56-1.41-1.9-1.7s-.81-.67-1.22-1c-8.75-6.22-18.57-12-24.37-20.83a54.54,54.54,0,0,1-9,1.69,12.76,12.76,0,0,1-2.25,7.94,17.78,17.78,0,0,1-16.44,7.46c-9.71-.86-18.49-8.05-21.63-17-.58-.23-1.16-.45-1.77-.66a158.14,158.14,0,0,1-16.58,5c-6.35,1.41-12.74,2.7-19,4.47C63,58.28,60,59.2,57,60.35l-.74.29c-.7.31-1.39.62-2.08,1-1.22.6-2.44,1.2-3.61,1.87-2.25,1.3-4.44,2.69-6.55,4.2l-.34.25-1,.79c-.86.73-1.73,1.45-2.54,2.23-.5.48-1,1-1.5,1.48A9.48,9.48,0,0,1,41.28,79a28.91,28.91,0,0,1-2.07,10.88q-1.07,2.66-2.28,5.25c0,.12-.11.25-.17.37.5,1,.83,1.7,1,2.16s.56,1.3.85,2c1.15,2.85,2.14,5.32,5.31,6.43a7.38,7.38,0,0,0,2.43.41c1.75,0,3.48-.56,6.59-2.15s5.16-2.63,6-5.47a5.33,5.33,0,0,0,.17-.66,1.87,1.87,0,0,0,.13-.71,1.62,1.62,0,0,0,0-.22q0-.33,0-.66l2.91-1c2.41-.84,3.62-1.23,6.13-2l4.91-1.49.29-.11h0a19.59,19.59,0,0,0,5.88-1.16c3.1-1,5.14-1.58,6.55-4a6.32,6.32,0,0,0,.52-1.13,17.37,17.37,0,0,0,3.81-1l2.38-.37c3.12-.49,4.65-.69,7.79-1l8.5-.9a2,2,0,0,0,1.63-1.19,1.93,1.93,0,0,0-.25-2l-5.19-6.63a23.72,23.72,0,0,1-1.27-2.07c1.47-.11,2.77-.18,4.68-.27l2.85-.13,2.95,0c3.18,0,4.56,0,8.34.09l2.29.08,0,.15-1.2,5.24a2,2,0,0,0,.34,1.6,2.05,2.05,0,0,0,1.46.8l5.49.46c2.87.24,4.27.39,7.13.76l2.35.3,2.41.37c1.63.26,2.79.45,4,.66v0a19,19,0,0,0,2.79,10,14.21,14.21,0,0,0,8.4,5.89,15.21,15.21,0,0,0,5.19.55,6.34,6.34,0,0,0,.63,2.64c2.34,5.09,12.33,6.24,12.43,6.24h1.21a2,2,0,0,0,.94-.23l1.05-.54a7.11,7.11,0,0,0,3.67-5.15l0-.16c0-.14.06-.3.1-.43s.16-.54,1-2.55h.7a24.6,24.6,0,0,0,4-.28C189,95.94,188.83,95.31,188.67,94.68Z" transform="translate(-4.5 -4.5)"/><path class="cls-7" d="M63.62,103l1,2.12-.47-2.49Z" transform="translate(-4.5 -4.5)"/><path class="cls-8" d="M204.74,77.63c0,.2,0,.4-.08.6a20.67,20.67,0,0,1-3,7.56,21.73,21.73,0,0,1-6.72,7,14.91,14.91,0,0,0,8.39-6,28.71,28.71,0,0,0,1.58-2.89A96.31,96.31,0,1,1,25.64,72.52l7.46,7.16-6.41-9.32L25.4,68.5q-.64,1.27-1.26,2.58a98.3,98.3,0,1,0,180.6,6.55Z" transform="translate(-4.5 -4.5)"/><path class="cls-4" d="M200.64,68.13A18.67,18.67,0,0,0,194,62c-.74-.42-7.34-4.18-10.75-4.18a5.65,5.65,0,0,0-2.13.41,13.62,13.62,0,0,0-.59-1.49A12.94,12.94,0,0,0,177,52.31a14.4,14.4,0,0,0-5.38-2.68,15.1,15.1,0,0,0-6.09-.47,13.05,13.05,0,0,0-4.47,1.5c.55-2.3,1.07-4.35,1.47-5.9,1.25-4.9,1.55-6.06.41-7.91s-3-2.26-5.89-2.7H157l-2-.33c-.68-.12-1.4-.27-2.08-.41a14.81,14.81,0,0,0-3-.46,5.17,5.17,0,0,0-2.41.59c-1.44-1.39-3.56-1.7-6.58-2-1.89-.19-4.14-.32-5.33-.32a5.47,5.47,0,0,0-3.64,1.13c-2.16,1.78-2.24,3.95-2.58,13.09-.11,3-.22,6.09-.43,8.33-.32,3.5-.62,6.54-.88,9l-.71-1.41c-.91-1.8-1.85-3.68-2.58-5.22s-1.58-3.24-2.46-4.86-1.58-3-2.22-4.32a11.45,11.45,0,0,1-.57-1.37,15.15,15.15,0,0,1,.6-1.6c.7-1.6,1.44-3.19,2.23-4.74s1.72-3.21,2.73-4.8a48.67,48.67,0,0,1,3.1-4.36l5.95-7.43-9.65-.18c-1.86,0-3.3-.05-4.7-.05-1.75,0-3.43,0-6,.1l-3.9.1-.2,1.05c-1.39-1.18-2.82-1.23-6.7-1.23-5.73,0-8.19.64-9.73,2.57-1,1.23-1.31,2.49-1.17,4.95-.42-.28-.86-.54-1.3-.78A20,20,0,0,0,81.12,27h-.26c-3.48,0-11.81.53-14,4.42-1,1.86-.6,3.54.13,6.31.19.74.41,1.58.57,2.3s.25,1.14.38,1.71c-.12-.3-.21-.53-.26-.68l-1.44-4.18L61.89,38c-4.78,1.24-7.25,2-12,3.46l-4.09,1.31.87,4.12c.14.64.38,2,.72,3.8.39,2.07.9,4.85,1.57,8.32a14.83,14.83,0,0,0-2.58-.79,19.8,19.8,0,0,0-9.18.49c-11,3-11.76,5.77-12.12,7.09-.56,2.07.31,3.5,1.51,5.47.35.58.78,1.29,1.07,1.84.87,1.64,3,5.78,6,11.65,3.83,7.55,5.37,10.71,6,12,.29.61.61,1.41.89,2.11,1.09,2.7,1.81,4.48,4.11,5.29a5.18,5.18,0,0,0,1.75.29c1.19,0,2.49-.31,5.65-1.92,2.94-1.49,4.41-2.24,5-4.29a6.3,6.3,0,0,0,.18-.84l0,0,0-.08A4.44,4.44,0,0,0,57,95.31l4.54-1.58c2.45-.85,3.67-1.25,6.21-2l4.91-1.49-.11-.28a6.66,6.66,0,0,0,1,.08A18.2,18.2,0,0,0,78.82,89c2.91-.9,4.38-1.35,5.39-3.12a4.52,4.52,0,0,0,.62-1.9l.55-.09a16.84,16.84,0,0,0,4.34-1.09l2.66-.41c3.16-.49,4.7-.7,7.88-1l8.5-.91-5.2-6.62a39.19,39.19,0,0,1-2.86-5h.09c3.11-.28,4.63-.38,7.7-.52l2.92-.13,3,0c3.23,0,4.68,0,8.43.09l4.56.15c-.15,1.17-.29,2-.4,2.47l-1.2,5.25,5.5.47c2.9.24,4.32.39,7.22.76l2.4.31,2.41.37c2.38.38,3.76.61,5.67,1,0,.6,0,1.12,0,1.58a17.29,17.29,0,0,0,2.46,9,12.29,12.29,0,0,0,7.25,5.06,12.67,12.67,0,0,0,7.17,0,5.11,5.11,0,0,0-.05,4.29c1.8,3.9,10.51,5.08,10.59,5.08h1.21l1-.55a5.12,5.12,0,0,0,2.63-3.81l0-.13c0-.2.08-.41.13-.58s.26-.83,1.14-3c.14-.34.28-.7.42-1h.06c.64,0,1.32,0,2,0a14.13,14.13,0,0,0,7-1.41,21.09,21.09,0,0,0,8.17-9.12,21.37,21.37,0,0,0,2.41-8A13.34,13.34,0,0,0,200.64,68.13Z" transform="translate(-4.5 -4.5)"/><path class="cls-1" d="M64.73,56.58c-.54-1.26-1.1-2.5-1.65-3.66-.26-.55-.5-1-.71-1.43.06.52.15,1.09.24,1.65.2,1.31.44,2.65.7,4s.53,2.71.8,4,.48,2.1.67,2.67c0,0,.07.07.27.07a3.86,3.86,0,0,0,1-.2c.58-.17,1.23-.47,1.16-.71-.18-.59-.5-1.48-1-2.64S65.29,57.86,64.73,56.58Z" transform="translate(-4.5 -4.5)"/><path class="cls-1" d="M185.73,66.19c-.2-.08-.25-.06-.25-.06a3.36,3.36,0,0,0-.67,1c-.09.17-.26.61-.54,1.29-.65,1.57-1.86,4.5-3.68,8.5-.35.76-.32,1.05-.3,1.12h0l.13,0a6.21,6.21,0,0,0,.69.05,1.33,1.33,0,0,0,.56-.08,7.1,7.1,0,0,0,1.21-.84,9,9,0,0,0,1.56-1.69,13.93,13.93,0,0,0,1.43-2.45A9.93,9.93,0,0,0,187,68.43C186.85,66.64,186,66.3,185.73,66.19Z" transform="translate(-4.5 -4.5)"/><path class="cls-1" d="M166.18,55.24a1,1,0,0,0-.29,0c-.73,0-1.6.81-2.44,2.27a37.57,37.57,0,0,0-3.24,8.67,37.88,37.88,0,0,0-1.52,8.45c0,2.4.8,2.62,1.07,2.7a1.26,1.26,0,0,0,.27,0c.62,0,1.35-.63,2.1-1.81a35.45,35.45,0,0,0,3.33-8,34.7,34.7,0,0,0,1.9-9.16C167.38,57.11,167.19,55.51,166.18,55.24Z" transform="translate(-4.5 -4.5)"/><path class="cls-1" d="M86.67,39.05a9.28,9.28,0,0,0-1.19-2.15,4.15,4.15,0,0,0-1.35-1.2,2.62,2.62,0,0,0-1.54-.18,1.79,1.79,0,0,0-.46.1c0,.46.2,2,1.18,7.5,1.13,6.33,1.48,7.49,1.58,7.7a.31.31,0,0,0,.14.07,4.54,4.54,0,0,0,1-1.13,8.15,8.15,0,0,0,1-1.88,8.86,8.86,0,0,0,.52-2.6,15.88,15.88,0,0,0-.17-3.39A13.06,13.06,0,0,0,86.67,39.05Z" transform="translate(-4.5 -4.5)"/><path class="cls-1" d="M49.57,68.29a10.11,10.11,0,0,0-2.72-4A3,3,0,0,0,45,63.49a1.9,1.9,0,0,0-.7.14c-.15.07-.23.13-.23.16a3,3,0,0,0,.3,1.18c.07.17.26.59.57,1.25.72,1.54,2.05,4.42,3.76,8.47.34.81.58,1,.62,1a1.08,1.08,0,0,0,.13-.08c.71-.54.84-.83.87-.91a6.54,6.54,0,0,0,.23-1.43A8.44,8.44,0,0,0,50.38,71,13.7,13.7,0,0,0,49.57,68.29Z" transform="translate(-4.5 -4.5)"/><g class="cls-9"><g class="cls-10"><path class="cls-11" d="M142.5,155.76a5,5,0,0,0-4.33-1.39,11.22,11.22,0,0,0-1.68.43l-1.19.34c-.3.07-.62.17-1,.26a12.9,12.9,0,0,1-1.93.46h-.31c-.11-.42,0-.71,1.42-1.35a27.18,27.18,0,0,1,3-1.11c3.28-1.1,7-2.34,6.92-5.48a3.71,3.71,0,0,0-2.23-3.28,5.29,5.29,0,0,0-2.4-.34c-2.53.26-4.55,2.42-6.34,4.55a5.91,5.91,0,0,0,.54-1.39,4.15,4.15,0,0,0-.7-3.66,4.47,4.47,0,0,0-3.54-1.49l-.31,0a4.87,4.87,0,0,0-3.69,2.77,14.9,14.9,0,0,0-1.35,7.46A54.33,54.33,0,0,1,111,144.39a18.17,18.17,0,0,1,1-7.76,14.21,14.21,0,0,1,2-.35,20.35,20.35,0,0,0,2.12-.35c3.88-1,8.58-3.59,9-7.94,0-.49.4-4.74-2.07-6-1.47-.78-3-.69-5,.33a5.53,5.53,0,0,1-2.41-.4,5.88,5.88,0,0,0-1.25-3.35,6.53,6.53,0,0,0-2.33-1.82c-1-2.23-4.34-4-6.52-3.87a9.9,9.9,0,0,0-5.12,1.59,2.79,2.79,0,0,0-.91-1.52,4.07,4.07,0,0,0-3.16-.72,13.6,13.6,0,0,0-2,.39c-.21-.49-.15-.55-.05-.6a10.47,10.47,0,0,0,2.84-1.49,5.76,5.76,0,0,0,2.48-4.21c.15-2.36-.49-3.81-1.89-4.32-1.16-.44-2.71,0-4.5,1.12a10.38,10.38,0,0,0-1.45,1.13l-.5.43a.84.84,0,0,1-.2.05c-.19,0-.3-.2-.44-1l0-.18c-.3-1.42-.29-1.64.63-2.13,1.53-.67,4.34-1.93,4.35-5a3.55,3.55,0,0,0-3-3.9,4.93,4.93,0,0,0-1.28,0,9.89,9.89,0,0,0-7.65,6.24,142.8,142.8,0,0,1-13.48,7.21l-1,.49a21.94,21.94,0,0,0-4,2.66c-1.7,1.44-2.65,2.78-2.82,4A11,11,0,0,0,59,115a9.54,9.54,0,0,0-3.24-2,22.1,22.1,0,0,0-4.63-1.27l-1.1-.16A145.38,145.38,0,0,1,35,109a10.16,10.16,0,0,0-8.47-3.65,5.54,5.54,0,0,0-2,.55,3.57,3.57,0,0,0-1.63,4.65c1,2.92,4.05,3.23,5.71,3.39,1,.18,1.11.38,1.27,1.82l0,.19c0,.31.1.83,0,1a.39.39,0,0,1-.31.07l-.61-.25a10.07,10.07,0,0,0-1.73-.62c-2.06-.54-3.66-.42-4.63.35-1.17.93-1.31,2.51-.43,4.69a5.76,5.76,0,0,0,3.67,3.22,10,10,0,0,0,3.17.52c.11,0,.18.06.14.59l-.71.06c-1.36.14-3.25.48-4.1,1.88a3.32,3.32,0,0,0,0,3.25,3.58,3.58,0,0,0,2.18,2,6.09,6.09,0,0,0,2.59.23,20.7,20.7,0,0,0,6.68-2.25c3.31,1.47,8.19,1.63,11.42,1.3.38,0,.72-.09,1-.14l.29,0A21.67,21.67,0,0,0,54.83,130c.28.13.58.23.87.34l.1,0a38.78,38.78,0,0,0,5.3,9.22,57.75,57.75,0,0,0,8.59,8.93,37.5,37.5,0,0,0,13.32,7,39.46,39.46,0,0,1,1.66,6.38c1,5.54-.32,9-1.92,9.82a7.1,7.1,0,0,1-2,.47c-.42,0-.8.05-1,.06-.74,0-1.46.06-2.16.13a16.53,16.53,0,0,0-3.54.7,5.51,5.51,0,0,0-3.58,3.32,4.2,4.2,0,0,0,1,3.76,4.13,4.13,0,0,0,3.52,1.22,5,5,0,0,0,2.85-1.16c2-1.68,4.95-3.28,6.41-3.43a1.33,1.33,0,0,1,.44,0v.06a8.53,8.53,0,0,1-2.34,2l0,0c-.36.24-.71.46-1,.66a13.37,13.37,0,0,0-1.44,1,5,5,0,0,0-1.83,4.17,5.53,5.53,0,0,0,2.38,4.06,3.8,3.8,0,0,0,2.48.61A4.3,4.3,0,0,0,84,189a6.86,6.86,0,0,0,2.56-2,24.17,24.17,0,0,0,2.26-3.6l.48-.9c1.35-2.48,2.62-4.84,4.5-5a3.35,3.35,0,0,1,.88.06c.46.19.79,2,1,3.34.13.69.26,1.4.42,2.1a5.52,5.52,0,0,0,3.42,3.78,5.74,5.74,0,0,0,2.22.21,6.39,6.39,0,0,0,3.28-1.38,5.36,5.36,0,0,0,2-4.18c-.2-2.32-2.66-4.21-4.16-4.86a11.63,11.63,0,0,1-3.9-2.8c-.48-.76-.64-1.35-.46-1.72.29-.6,1.66-.88,3.61-.73h.11a11.28,11.28,0,0,1,2.88.31,12.38,12.38,0,0,0,3.42.25,4.94,4.94,0,0,0,3.49-1.8,4.75,4.75,0,0,0,.79-4.27,4.21,4.21,0,0,0-2.63-2.94,5.93,5.93,0,0,0-2.62-.28,18.28,18.28,0,0,0-5.88,2.08,9.84,9.84,0,0,1-3.13,1,3.69,3.69,0,0,1-3-.83,30.68,30.68,0,0,1-6.41-8.56h.77a12.32,12.32,0,0,0,1.35,0,20.51,20.51,0,0,0,6.34-1.53,17.62,17.62,0,0,0,4.29,1.81,13.49,13.49,0,0,0,4.79.48,8.59,8.59,0,0,0,4.12-1.37,2.65,2.65,0,0,0,1.3-2.42c2.89,1.21,7.38,4.18,7.82,6.79a4.3,4.3,0,0,1-1.26.45l-.07,0c-1.68.4-3.76.89-4.65,2.66a3.4,3.4,0,0,0,.13,3.43,6.56,6.56,0,0,0,4.85,2.85c.25,0,.5,0,.74,0,2.24-.23,3.86-1.66,5-4.39A5.63,5.63,0,0,1,129,162.2a16.82,16.82,0,0,1,5.23.59,23.32,23.32,0,0,0,4.2.71,7.43,7.43,0,0,0,1.05,0,6.24,6.24,0,0,0,2.12-.57,4.72,4.72,0,0,0,1-.71,3.79,3.79,0,0,0,1.19-2.26A4.81,4.81,0,0,0,142.5,155.76Z" transform="translate(-4.5 -4.5)"/></g></g><path class="cls-3" d="M95.2,66.1a42.43,42.43,0,0,1-2.4-6c.17-.21.34-.43.5-.66a18.89,18.89,0,0,0,3.18-13.38,21.62,21.62,0,0,0-2.23-7.83A12.42,12.42,0,0,0,89.1,33a16.45,16.45,0,0,0-7.85-1.77H81c-.09,0-9.52.27-10.8,2.57-.35.62-.19,1.28.45,3.73.21.79.44,1.65.61,2.43,1.37,6.23,2.72,12.49,4.08,18.73l.33,1.52c.49,2.3,1,5.36,1.45,8.32.74,4.67,1.26,7.64,1.75,9.54-.7-1.69-1.49-3.66-2.41-6l-.11-.27c-1.08-2.77-3.11-7.93-6.26-15.44C69,53.73,68,51.45,67.22,49.54c-1.48-3.51-2.46-5.82-2.75-6.68l-.36-1L63,42.1c-4.74,1.22-7,1.89-11.72,3.39l-1,.32.22,1c.15.69.39,2,.74,3.86.47,2.53,1.13,6.11,2,10.73,1,5,1.8,9,2.4,11.88-.17-.6-.36-1.21-.59-1.83a18,18,0,0,0-3.54-6.06,10.42,10.42,0,0,0-5.6-3.15,15.83,15.83,0,0,0-7.42.44c-1.5.41-9,2.55-9.57,4.58-.17.63.1,1.08,1.12,2.76.39.65.83,1.38,1.17,2,.88,1.66,3,5.8,6,11.66s5.12,10.17,6,12.09c.31.67.64,1.49.95,2.27,1,2.37,1.24,3,2,3.25a1.5,1.5,0,0,0,.52.09c.83,0,6.87-2.6,7.21-3.7.17-.57-.07-.91-.51-1.54a9.5,9.5,0,0,1-.54-.81c-.3-.48-.83-1.55-1.58-3.17-.2-.44-.42-.89-.63-1.32-.3-.61-.69-1.42-.85-1.84a20.22,20.22,0,0,1,1.87-1.9c1.81-1.71,3.86-3.65,4.35-5.61a14.48,14.48,0,0,0,.25-5.44c.12.57.22,1.07.31,1.5.54,2.67,1,5.09,1.43,7.26l.33,1.78c.26,1.35.47,2.47.64,3.37l.25,1.37,1.35-.47c2.5-.87,3.74-1.27,6.32-2.06l1.23-.37-.46-1.18c-.47-1.19-.88-2.4-1.22-3.6a22.46,22.46,0,0,1-.73-3.55,2,2,0,0,1,0-.63,8.21,8.21,0,0,1,1.73-.67,7.65,7.65,0,0,1,1.81-.35,3,3,0,0,1,.72,1.11,31.06,31.06,0,0,1,1.06,3l.16.49c.1.34.21.76.32,1.17.39,1.5.57,2.19,1.22,2.53a2.07,2.07,0,0,0,1,.22c.9,0,6.93-1.41,7.47-2.36.32-.57.28-.66-.77-3-.12-.26-.24-.54-.36-.82a2,2,0,0,0,.42.35l.36.16h.32c.07,0,7-.38,8-1.91.29-.48.19-.82-.12-1.82-.17-.52-.39-1.24-.54-1.88-.26-1.07-.6-2.62-1-4.61.12.26.24.54.36.82,1.67,3.79,2.51,6,2.71,6.65l.31,1,1-.16c3.23-.5,4.81-.71,8-1l2.13-.23-1.3-1.66C99.87,75.33,97.89,72,95.2,66.1ZM47.37,79.93a5.67,5.67,0,0,1-.22,1.4,2.34,2.34,0,0,1-.61.63,4.12,4.12,0,0,1-.33-.65c-1.78-4.24-3.18-7.24-3.93-8.85-.31-.67-.51-1.1-.58-1.28a4.43,4.43,0,0,1-.27-.9c.66-.28,1.37,0,2.23.66a10.14,10.14,0,0,1,2.71,4,13.53,13.53,0,0,1,.84,2.73A8.85,8.85,0,0,1,47.37,79.93ZM64.78,69.54a4,4,0,0,1-.91.19c-.17-.58-.38-1.44-.62-2.55-.27-1.29-.55-2.66-.82-4.11-.21-1.09-.4-2.18-.58-3.25.43.94.86,1.9,1.28,2.89.58,1.33,1.1,2.62,1.6,3.85s.76,2,1,2.6A3.36,3.36,0,0,1,64.78,69.54Zm21.93-18.8a9.14,9.14,0,0,1-.51,2.6,8.05,8.05,0,0,1-1,1.87,8.41,8.41,0,0,1-.63.78c-.2-.73-.62-2.63-1.49-7.55S82,41.72,81.89,41l.1,0a2.34,2.34,0,0,1,1.36.15,3.89,3.89,0,0,1,1.26,1.14,9.26,9.26,0,0,1,1.17,2.15,12.74,12.74,0,0,1,.75,2.88A16.6,16.6,0,0,1,86.71,50.74Z" transform="translate(-4.5 -4.5)"/><path class="cls-3" d="M153.11,70.5c.35-1.88,1.49-7.31,3.21-15.27.92-4.27,1.86-8,2.55-10.65,1.09-4.28,1.19-4.63.82-5.22s-.7-.63-3.34-1c-.73-.11-1.51-.23-2.22-.36s-1.51-.29-2.18-.43a14.57,14.57,0,0,0-2.24-.37,1.34,1.34,0,0,0-.87.28c-.47.37-.49.75-.55,2,0,.62-.07,1.39-.16,2q-.25,1.83-.74,5.55c-.1.82-.19,1.61-.27,2.36-.14,1.24-.26,2.33-.42,3.17a10,10,0,0,1-2,0,4.8,4.8,0,0,1-1.94-.48,45,45,0,0,1,.64-5.43c.38-2.33.7-4.16,1-5.42.11-.52.29-1.15.45-1.71.39-1.37.54-1.88.16-2.43-1-1.45-9.43-1.54-9.52-1.54a1.9,1.9,0,0,0-1.31.32c-.81.66-1,2-1.29,10.47-.05,1.34-.09,2.71-.15,4a9.58,9.58,0,0,0-3.21-2.05l.86-.69-1.48-.16,1.35-2.92-2.23,2-.44-4.52-.73,4.23L125,44.08l.75,2.68-2.06-.91L125,47.54a9.77,9.77,0,0,0-7,4c-.43-.83-.83-1.63-1.19-2.39a7.6,7.6,0,0,1-1-2.83,8.33,8.33,0,0,1,.93-3c.72-1.66,1.49-3.3,2.3-4.9s1.82-3.39,2.89-5.08a51.33,51.33,0,0,1,3.31-4.66l1.49-1.86-2.42-.05c-1.81,0-3.23-.05-4.6-.05-1.71,0-3.35,0-5.86.1l-1,0-.17.94a46.49,46.49,0,0,1-2.64,7.56c-.72,1.74-1.36,3.25-2,4.48,0-.38-.07-.81-.1-1.29-.27-3.4-.38-5.71-.35-7.07,0-.57.06-1.21.1-1.77.11-1.56.15-2-.35-2.49-.32-.3-.49-.46-4.41-.46-5.44,0-6.4.63-6.88,1.22-.69.86-.58,2.53.71,11.2.49,3.26,1,6.64,1.22,9.17.31,3.58,1.27,14.47,1.16,16.28L99.11,66l1.4-.13c3.17-.28,4.71-.38,7.83-.52l1.3-.06L109.49,64c-.12-1-.34-3.18-.42-6.26,0-1.53-.09-2.85-.14-4a23.73,23.73,0,0,1,1.45,2.94c.53,1.25,1,2.53,1.54,3.8a35.27,35.27,0,0,1,1.2,3.73l.24.9h.94l3.34,0,1,2.66a8.37,8.37,0,0,1,3.27-.06c3.08.35,3,2,5.41,3.57l3.95-5.23c-.34,3.07-.63,5.1-.85,6.06l-.3,1.32,1.38.11c2.95.25,4.4.41,7.35.78l1.37.18V73.16a26.81,26.81,0,0,1,.18-3.06l.49-4.91a36.58,36.58,0,0,1,.75-4.55,2.18,2.18,0,0,1,.93-.14,6.62,6.62,0,0,1,.84.06,3.73,3.73,0,0,1,1.94.59,20.87,20.87,0,0,1-.58,3.33c-.1.45-.2.92-.3,1.39-.42,2-.74,3.62-1,4.78a28.47,28.47,0,0,1-.7,2.88l-.4,1.29,1.36.22c2.93.45,4.35.71,7.24,1.28l1.32.26.12-1.3C152.55,73.84,152.79,72.24,153.11,70.5Z" transform="translate(-4.5 -4.5)"/><path class="cls-3" d="M173.69,81.75c.78-1.6,1.48-3.25,2.09-4.9A49.41,49.41,0,0,0,177.31,72a29,29,0,0,0,.77-4.29,24.61,24.61,0,0,0,0-4.69A12.15,12.15,0,0,0,177,58.87a9.4,9.4,0,0,0-2.55-3.23,10.86,10.86,0,0,0-4-2,11,11,0,0,0-4.56-.37A9.53,9.53,0,0,0,162,54.75a12.92,12.92,0,0,0-3.12,3,25.67,25.67,0,0,0-2.46,4,40.44,40.44,0,0,0-2.2,6.66A56.48,56.48,0,0,0,152.63,76a34.85,34.85,0,0,0-.22,5,13.86,13.86,0,0,0,1.89,7.17,8.73,8.73,0,0,0,5.17,3.58,10.12,10.12,0,0,0,2.67.38,8.46,8.46,0,0,0,3.62-.81,14.37,14.37,0,0,0,5.46-5.15A35.3,35.3,0,0,0,173.69,81.75Zm-4.6-17.3a36.27,36.27,0,0,1-2,9.46,36.63,36.63,0,0,1-3.39,8.21c-1,1.53-1.61,1.7-1.83,1.7a.51.51,0,0,1-.17,0c-.69-.18-.82-1.42-.81-2.43a39.3,39.3,0,0,1,1.56-8.73,39.39,39.39,0,0,1,3.3-8.95c.78-1.36,1.59-2.17,2.17-2.17a.69.69,0,0,1,.2,0C169,61.78,169.1,63.66,169.09,64.45Z" transform="translate(-4.5 -4.5)"/><path class="cls-3" d="M197.23,70.53a15,15,0,0,0-5.36-4.87C190.61,64.93,185.05,62,183,62a1.91,1.91,0,0,0-.91.21c-.59.32-.73.83-1.27,2.71-.21.72-.44,1.53-.67,2.2-.61,1.76-2.16,6-4.47,12.28S171.72,90,170.91,92c-.28.69-.64,1.47-1,2.23-1.09,2.33-1.36,3-1,3.66.68,1.49,7,3,7.26,3h.32l.26-.14c.53-.27.61-.66.77-1.42.07-.3.15-.66.23-.94.15-.54.58-1.66,1.25-3.31.18-.44.36-.9.53-1.34.25-.64.57-1.48.78-1.88a7.66,7.66,0,0,1,1.13-.06l1.47,0c.62,0,1.26,0,1.91,0a11.14,11.14,0,0,0,5.19-.91,17.66,17.66,0,0,0,6.74-7.61,17.89,17.89,0,0,0,2-6.69A9.93,9.93,0,0,0,197.23,70.53Zm-9,9.11a14.22,14.22,0,0,1-1.43,2.48,9.68,9.68,0,0,1-1.55,1.69,6.81,6.81,0,0,1-1.17.83,2.67,2.67,0,0,1-.82,0,4,4,0,0,1,.25-.67c1.88-4.18,3.13-7.24,3.8-8.89.29-.69.47-1.14.55-1.31a6,6,0,0,1,.47-.82c.26.11.89.44,1,2A10.14,10.14,0,0,1,188.24,79.64Z" transform="translate(-4.5 -4.5)"/><path class="cls-3" d="M28.53,136.29a20.31,20.31,0,0,0,4-1.42,14.72,14.72,0,0,1,1.51,3.43,3.41,3.41,0,0,1,0,2.21,2.39,2.39,0,0,1-1.57,1.31,3.08,3.08,0,0,1-1.85,0,3.68,3.68,0,0,1-1.45-.87,6.58,6.58,0,0,1-1.39-2,16.12,16.12,0,0,0-2.25.82l-1-2.41C25.27,137.23,26.6,136.86,28.53,136.29Zm1.18,2a2.19,2.19,0,0,0,.87,1.21,1.36,1.36,0,0,0,1,.2.72.72,0,0,0,.72-.75,2.46,2.46,0,0,0-.5-1.36Z" transform="translate(-4.5 -4.5)"/><path class="cls-3" d="M27.36,144.86a52,52,0,0,0,8.17-1.15l1.75,3A55.37,55.37,0,0,0,30.53,152L29,149.73l1.2-.89-.83-1.53-1.47.28Zm4.15,3.06,2.64-1.78-3.12.68Z" transform="translate(-4.5 -4.5)"/><path class="cls-3" d="M40.39,153c.69,1.29.64,2.27-.16,3a3,3,0,0,1-3.52-.25c-.17.34-.58,1.45-1.23,3.35L33,158l1.69-3.78a27.46,27.46,0,0,0-2.49,1.45l-1.61-1.88a65.1,65.1,0,0,0,7.41-4A17.36,17.36,0,0,1,40.39,153Zm-3.32-.07-.75.37a5.42,5.42,0,0,0,.91.62c.58.29,1,.34,1.15.18s.17-.34,0-.63a4.27,4.27,0,0,0-.6-.87A5.67,5.67,0,0,0,37.07,152.92Z" transform="translate(-4.5 -4.5)"/><path class="cls-3" d="M41.78,156.64l1.8,2c-.61.31-1.09.56-1.42.77.92.35,1.78.64,2.6.87l.48,2.44-3.19-1.14-2.3,5.07-2.39-1.59,2.41-4.27c-1.07.68-2.07,1.39-3,2.13L35,161.22Z" transform="translate(-4.5 -4.5)"/><path class="cls-3" d="M48.37,165.27c-1.3.83-2.39,1.58-3.26,2.25l1,.88,2.61-2.14,2.13,2a39.5,39.5,0,0,0-6.49,5l-2.11-1.76,2.49-2-1-.91c-.73.65-1.34,1.22-1.82,1.71l-2.09-1.73,6.46-5.31Z" transform="translate(-4.5 -4.5)"/><path class="cls-3" d="M51.08,170.77a3.49,3.49,0,0,1,3.21,1,3.24,3.24,0,0,1,.92,2.79,4,4,0,0,1-.47,1.59,5,5,0,0,1-1,1.3A5.15,5.15,0,0,1,51,178.73a3.53,3.53,0,0,1-3.21-1,3.3,3.3,0,0,1-.94-2.81,4.37,4.37,0,0,1,.49-1.51,4.75,4.75,0,0,1,1.05-1.33A5.32,5.32,0,0,1,51.08,170.77Zm1.68,3.83a1.11,1.11,0,0,0-.13-1.25,1.37,1.37,0,0,0-1.52-.15,4,4,0,0,0-1.35.81,1.7,1.7,0,0,0-.45.55,1.44,1.44,0,0,0-.21.82,1.42,1.42,0,0,0,.43.85,1.23,1.23,0,0,0,1.22.38,2.5,2.5,0,0,0,1.1-.65A3.7,3.7,0,0,0,52.76,174.6Z" transform="translate(-4.5 -4.5)"/><path class="cls-3" d="M54.7,178.69a19.49,19.49,0,0,0,2.61-3.38,15.06,15.06,0,0,1,3.13,2.06,3.38,3.38,0,0,1,1.16,1.89,2.33,2.33,0,0,1-.6,1.94,3,3,0,0,1-1.54,1,3.66,3.66,0,0,1-1.69.06,6.65,6.65,0,0,1-2.24-.92,15,15,0,0,0-1.45,1.91l-2.14-1.48C52.48,181.25,53.4,180.21,54.7,178.69Zm2.1,1.06a2.2,2.2,0,0,0,1.39.54,1.35,1.35,0,0,0,.91-.35.7.7,0,0,0,.19-1,2.39,2.39,0,0,0-1.16-.88Z" transform="translate(-4.5 -4.5)"/><path class="cls-3" d="M59.07,187.69a1.6,1.6,0,0,1-.29-.44,1.05,1.05,0,0,1-.11-.48,1.18,1.18,0,0,1,.09-.46.89.89,0,0,1,.28-.39,1,1,0,0,1,.43-.22,1.6,1.6,0,0,1,.49,0,1.79,1.79,0,0,1,.52.15,2.2,2.2,0,0,1,.45.3,1.51,1.51,0,0,1,.31.48,1.39,1.39,0,0,1,.11.47,1.44,1.44,0,0,1-.08.46.85.85,0,0,1-.29.36,1,1,0,0,1-.43.23,1.2,1.2,0,0,1-.5,0,1.63,1.63,0,0,1-.52-.15A1.39,1.39,0,0,1,59.07,187.69Z" transform="translate(-4.5 -4.5)"/><path class="cls-3" d="M66.74,184.08a3.49,3.49,0,0,1,3.36.22,3.23,3.23,0,0,1,1.56,2.49,4.1,4.1,0,0,1-.07,1.65,4.85,4.85,0,0,1-.71,1.52,5,5,0,0,1-2.35,1.87,3.53,3.53,0,0,1-3.37-.22,3.29,3.29,0,0,1-1.58-2.5,4.33,4.33,0,0,1,.11-1.58,4.7,4.7,0,0,1,.7-1.55A5.27,5.27,0,0,1,66.74,184.08Zm2.55,3.32a1.12,1.12,0,0,0-.44-1.19,1.36,1.36,0,0,0-1.5.22,4.08,4.08,0,0,0-1.12,1.11,2,2,0,0,0-.31.65,1.53,1.53,0,0,0,0,.85,1.48,1.48,0,0,0,.62.72,1.25,1.25,0,0,0,1.28.07,2.43,2.43,0,0,0,.91-.9A3.58,3.58,0,0,0,69.29,187.4Z" transform="translate(-4.5 -4.5)"/><path class="cls-3" d="M77.69,188.29c1.31.64,1.84,1.47,1.6,2.49a3,3,0,0,1-3,1.87c.06.37.39,1.51,1,3.43l-2.66.57-.85-4.05a25.68,25.68,0,0,0-1.16,2.63l-2.41-.58a65.22,65.22,0,0,0,3.64-7.59A17,17,0,0,1,77.69,188.29ZM75,190.19l-.39.73a5,5,0,0,0,1.1,0c.64-.1,1-.28,1-.53s-.07-.37-.34-.53a5.5,5.5,0,0,0-1-.35A5.85,5.85,0,0,0,75,190.19Z" transform="translate(-4.5 -4.5)"/><path class="cls-3" d="M79.85,198.68a3.34,3.34,0,0,1-.81-1.33,3.66,3.66,0,0,1-.16-.8,5.61,5.61,0,0,1,0-.82,4,4,0,0,1,.18-.8,7.16,7.16,0,0,1,.33-.83,5.76,5.76,0,0,1,.91-1.27,6.33,6.33,0,0,1,1.31-1,4.71,4.71,0,0,1,1.83-.61,4.26,4.26,0,0,1,1.85.25,3.44,3.44,0,0,1,1.34.86,3.39,3.39,0,0,1,.79,1.37l-.9.4-.93.4a1.56,1.56,0,0,0-1.41-1,2.73,2.73,0,0,0-1.79.61A2.89,2.89,0,0,0,81.14,196a1.54,1.54,0,0,0,.16,1.07,1.84,1.84,0,0,0,1.1.76,2,2,0,0,0,1.26,0,1.9,1.9,0,0,0,1-.69l-1.19-.23-1.12-.17.33-.79.35-.79,2.2.46,2.19.45a2.3,2.3,0,0,1-.2.79,4.9,4.9,0,0,1-.41.83,7.27,7.27,0,0,1-.55.67,5,5,0,0,1-.67.54,4.34,4.34,0,0,1-2.09.89,4.88,4.88,0,0,1-2.32-.29A3.56,3.56,0,0,1,79.85,198.68Z" transform="translate(-4.5 -4.5)"/><path class="cls-8" d="M48.49,88.85c-.11.36.87,2.17,1.64,3.83s1.32,2.76,1.64,3.29.95,1.35.93,1.41-5.42,3.1-6.16,2.84c-.39-.13-1.36-3-2.24-4.9s-2.88-5.92-6-12.12-5.15-10.09-6-11.68S30,67.86,30.1,67.6c.28-1,6.14-3,8.72-3.75a14.75,14.75,0,0,1,6.84-.42,9.14,9.14,0,0,1,5,2.79,16.85,16.85,0,0,1,3.3,5.68,15.66,15.66,0,0,1,.88,9.35C54.11,84,49,87.41,48.49,88.85Zm-1-14.36A11.16,11.16,0,0,0,44.44,70a3.33,3.33,0,0,0-3.51-.84,1,1,0,0,0-.72.8,3.93,3.93,0,0,0,.36,1.59c.24.62,2,4.11,4.52,10.17.59,1.39,1.25,1.86,2,1.26A3.39,3.39,0,0,0,48.3,81.7,8,8,0,0,0,48.58,80a9.52,9.52,0,0,0-.19-2.57A14.48,14.48,0,0,0,47.49,74.49Z" transform="translate(-4.5 -4.5)"/><path class="cls-8" d="M80.12,84.06c-.05.09-5.93,2.16-6.84,1.68-.28-.14-.64-2-1-3s-.71-2.32-1.25-3.58-1.15-1.81-1.69-1.83a7.4,7.4,0,0,0-2.3.39,8.69,8.69,0,0,0-2,.8c-.48.27-.68.87-.58,1.76A23.13,23.13,0,0,0,65.24,84a37.78,37.78,0,0,0,1.25,3.72c-2.56.77-3.84,1.19-6.37,2.07q-.34-1.89-1-5.15c-.41-2.18-.89-4.61-1.42-7.27s-1.7-8-3.28-16.15-2.43-13-2.77-14.61c4.63-1.49,7-2.16,11.65-3.37.47,1.36,2.43,5.87,5.68,13.61s5.29,13,6.35,15.68,2,5.06,2.88,7.11S80.18,84,80.12,84.06ZM66.88,69c-.19-.64-.53-1.59-1-2.83s-1-2.53-1.6-3.88-1.15-2.63-1.72-3.84-1.07-2.15-1.43-2.78c-.21-.37-.43-.55-.65-.51s-.34.32-.32.79c0,.76.18,1.84.38,3.18s.45,2.74.73,4.2.55,2.83.83,4.14.52,2.25.71,2.85,1,.8,2.37.39S67.09,69.69,66.88,69Z" transform="translate(-4.5 -4.5)"/><path class="cls-8" d="M94.1,66.58a66.1,66.1,0,0,0,5.69,10.59c-3.25.34-4.86.56-8.08,1.06-.24-.78-1.13-3-2.77-6.79s-2.66-5.94-3-6.59-.53-.92-.68-1.15a3.06,3.06,0,0,0-.57-.54c-.16.1.82,4.34,1.35,7S87,74.68,87.3,76s.85,2.75.8,2.83c-.45.73-6.88,1.4-7,1.33C79.59,79.27,78.32,66.7,76.87,60s-2.93-13.51-4.41-20.26c-.49-2.21-1.39-5-1.18-5.35.62-1.12,6.81-1.93,9.76-2a15.4,15.4,0,0,1,7.47,1.62,11.25,11.25,0,0,1,4.67,4.72,20.19,20.19,0,0,1,2.09,7.4,17.7,17.7,0,0,1-3,12.58,11.54,11.54,0,0,1-.74,1C91.37,59.93,92.18,62.41,94.1,66.58ZM87.73,47.11A14.84,14.84,0,0,0,86.91,44a10.44,10.44,0,0,0-1.33-2.42,5,5,0,0,0-1.66-1.48,3.45,3.45,0,0,0-2.09-.28c-.64.09-1,.27-1.15.6s.3,3.09,1.21,8.25,1.49,7.92,1.74,8.29a1,1,0,0,0,1.06.43,4.46,4.46,0,0,0,1.5-1.46,9.91,9.91,0,0,0,1.14-2.15,10,10,0,0,0,.58-2.94A16.94,16.94,0,0,0,87.73,47.11Z" transform="translate(-4.5 -4.5)"/><path class="cls-8" d="M107.86,57.78c.08,3.08.29,5.27.43,6.37-3.16.15-4.74.25-7.89.53q.12-2-1.15-16.45c-.57-6.51-3-18.54-2.19-19.54s9.4-.74,9.51-.64a31.91,31.91,0,0,1-.13,3.39q0,2.13.35,7.18c.26,3.37.52,4.92.71,4.67a38.68,38.68,0,0,0,3.67-7.5,45.8,45.8,0,0,0,2.7-7.79c4.16-.12,6.25-.13,10.41-.05a51.52,51.52,0,0,0-3.38,4.77,59.42,59.42,0,0,0-3,5.18c-.85,1.69-1.62,3.35-2.32,5a9.73,9.73,0,0,0-1,3.46,9,9,0,0,0,1.06,3.31c.69,1.45,1.47,3,2.32,4.52s1.63,3.1,2.33,4.6,1.59,3.27,2.62,5.32c-3.45-.12-5.18-.14-8.63-.09a38.39,38.39,0,0,0-1.24-3.85c-.49-1.26-1-2.53-1.55-3.84a24.18,24.18,0,0,0-1.59-3.19c-.51-.83-2.53-3.3-2.45-3.57C107.48,49.47,107.72,52.29,107.86,57.78Z" transform="translate(-4.5 -4.5)"/><path class="cls-8" d="M140.45,60.32a38,38,0,0,0-.78,4.75c-.2,2-.37,3.65-.5,4.92s-.18,2.33-.18,3.18c-3-.37-4.43-.53-7.4-.78q.67-3,2-17.58c.56-6,.45-17.46,1.3-18.16.23-.18,8.62.34,9.05,1a32.41,32.41,0,0,1-.79,3.26c-.27,1.29-.59,3.12-1,5.47a42,42,0,0,0-.66,5.74c0,.79,1,1.31,3,1.52s3.12,0,3.24-.47c.33-1.4.49-3.58.8-6s.56-4.31.74-5.52.16-3.12.27-3.2a37,37,0,0,1,4.32.76,46.43,46.43,0,0,1,4.73.84c.22.35-1.7,6.62-3.52,15s-2.87,13.5-3.21,15.31-.57,3.44-.71,4.88c-2.9-.58-4.36-.84-7.28-1.3.25-.84.5-1.85.73-3s.55-2.74,1-4.77a32.22,32.22,0,0,0,.9-5.07c0-.76-1.11-1.43-3-1.65S140.63,59.54,140.45,60.32Z" transform="translate(-4.5 -4.5)"/><path class="cls-8" d="M159.8,90.54a7.5,7.5,0,0,1-4.49-3.08,12.71,12.71,0,0,1-1.69-6.57,33.49,33.49,0,0,1,.21-4.8,54.2,54.2,0,0,1,1.56-7.42,38.35,38.35,0,0,1,2.1-6.43,24.92,24.92,0,0,1,2.35-3.84,11.61,11.61,0,0,1,2.82-2.67,8.43,8.43,0,0,1,3.39-1.28,10.05,10.05,0,0,1,4.07.34,9.6,9.6,0,0,1,3.58,1.76,8.11,8.11,0,0,1,2.22,2.82,11,11,0,0,1,1,3.72,24.09,24.09,0,0,1,0,4.48,26.4,26.4,0,0,1-.73,4.11,50,50,0,0,1-1.5,4.77,50.64,50.64,0,0,1-2,4.79,33.44,33.44,0,0,1-2.39,4.2,13.21,13.21,0,0,1-5,4.75A7.66,7.66,0,0,1,159.8,90.54Zm1.53-18.2a40,40,0,0,0-1.6,9c0,2.08.53,3.26,1.69,3.58s2.24-.42,3.36-2.19a38,38,0,0,0,3.52-8.49,37.16,37.16,0,0,0,2-9.78c0-2.37-.59-3.73-1.8-4.07s-2.53.56-3.75,2.71A39.58,39.58,0,0,0,161.33,72.34Z" transform="translate(-4.5 -4.5)"/><path class="cls-8" d="M179.54,90.82c-.35.16-1,2.12-1.7,3.81s-1.13,2.83-1.3,3.42-.34,1.61-.39,1.64-5.87-1.61-6.18-2.29c-.17-.37,1.28-3.05,2.06-5s2.38-6.14,4.78-12.65,3.89-10.61,4.47-12.3,1.14-4.13,1.39-4.26c.92-.5,6.33,2.14,8.58,3.45a13.8,13.8,0,0,1,4.95,4.47,8.8,8.8,0,0,1,1.34,5.41,17.07,17.07,0,0,1-1.92,6.25,16.34,16.34,0,0,1-6.27,7.11C186.87,91.34,180.9,90.17,179.54,90.82Zm9.8-10.71a11.14,11.14,0,0,0,1.19-5.23,3.12,3.12,0,0,0-1.76-3,1,1,0,0,0-1.06.06,3.85,3.85,0,0,0-.92,1.36c-.3.6-1.67,4.23-4.37,10.23-.63,1.38-.52,2.16.44,2.29a3.34,3.34,0,0,0,1.76-.1,8,8,0,0,0,1.41-1,10.45,10.45,0,0,0,1.76-1.92A15.15,15.15,0,0,0,189.34,80.11Z" transform="translate(-4.5 -4.5)"/><path class="cls-12" d="M48.4,74.13a15.13,15.13,0,0,1,.74,2.57,10.61,10.61,0,0,1,.2,2.78A8.25,8.25,0,0,1,49,81.34,3.92,3.92,0,0,1,47.56,83a1.9,1.9,0,0,1-1.15.42h0c-1.3,0-1.95-1.5-2.15-2q-1-2.42-1.87-4.27c-1.6.85-3.21,1.71-4.81,2.59.4.78.83,1.6,1.27,2.47,3.08,6,5.19,10.2,6.1,12.14.34.72.68,1.56,1,2.37s.65,1.59.88,2a34.32,34.32,0,0,0,4.73-2.26c-.18-.25-.38-.54-.52-.77-.34-.56-.89-1.65-1.69-3.37l-.62-1.28c-1-1.94-1.25-2.58-1.07-3.11.25-.74,1.08-1.54,2.52-2.88s3.48-3.26,3.83-4.67a14.68,14.68,0,0,0-.76-8.64Q50.82,72.94,48.4,74.13Z" transform="translate(-4.5 -4.5)"/><path class="cls-12" d="M77.64,79.47c-.82-1.92-1.78-4.25-2.92-7.12l-.1-.27C74,70.45,73,68,71.67,64.74c-1.57.5-3.12,1-4.67,1.56.32.82.55,1.49.7,2,.2.68.17,1.93-2.29,2.67a5.43,5.43,0,0,1-1.57.28A1.74,1.74,0,0,1,62,70.05c-.14-.42-.29-1-.46-1.73l-1.09.42-.82.33-1,.42-1.56.7.74,3.53q.39,1.86.63,3,.81,4,1.44,7.28l.34,1.77c.18.94.34,1.76.48,2.47,1.74-.59,2.92-1,4.74-1.52q-.55-1.5-1-3a25.37,25.37,0,0,1-.8-3.86,2.32,2.32,0,0,1,1-2.52,9.82,9.82,0,0,1,2.23-.88,8.82,8.82,0,0,1,2.59-.42c.92,0,1.8.88,2.42,2.31A33.56,33.56,0,0,1,73,81.55l.16.48c.11.37.23.82.35,1.27s.25,1,.36,1.26a28.17,28.17,0,0,0,5.38-1.4l-.55-1.22C78.39,81.19,78,80.31,77.64,79.47Z" transform="translate(-4.5 -4.5)"/><path class="cls-12" d="M90.7,59.35l-.69.13c-4,.85-8,1.8-11.94,2.9.29,1.63.57,3.37.85,5.09.67,4.21,1.59,9.89,2.32,11.08a37.28,37.28,0,0,0,5.81-.92q0-.12-.09-.27c-.17-.55-.41-1.3-.58-2-.31-1.3-.74-3.28-1.28-5.88-.15-.73-.33-1.58-.52-2.43-1.07-5-1.07-5-.51-5.33l.49-.33.47.35a3.64,3.64,0,0,1,.78.76c.18.28.43.68.71,1.2.41.77,1.58,3.32,3.06,6.64,1.37,3.08,2.2,5.12,2.6,6.22,2.41-.37,3.93-.57,6.19-.82a86.28,86.28,0,0,1-5.07-9.63C91.44,62.1,90.83,60.26,90.7,59.35Z" transform="translate(-4.5 -4.5)"/><path class="cls-12" d="M118.93,57.85l-.81-.06c-1.78-.09-3.57-.13-5.36-.16l.66,1.65c.42,1.07.79,2.19,1.12,3.33,2.58,0,4.15,0,6.77.06-.73-1.45-1.45-2.89-2.06-4.16C119.15,58.29,119,58.07,118.93,57.85Z" transform="translate(-4.5 -4.5)"/><path class="cls-12" d="M103.89,57.85q-1.42.09-2.85.21c.18,2.44.28,4.15.31,5.19,2.38-.21,3.88-.31,6.25-.42-.12-1.13-.27-2.89-.34-5.15C106.14,57.72,105,57.77,103.89,57.85Z" transform="translate(-4.5 -4.5)"/><path class="cls-12" d="M133.72,59.78c-.56,5.62-1,9.36-1.35,11.33,2.16.19,3.56.33,5.71.6q0-1,.18-2.37l.5-4.92c.11-1.14.3-2.28.52-3.42C137.44,60.56,135.58,60.15,133.72,59.78Z" transform="translate(-4.5 -4.5)"/><path class="cls-12" d="M147,63.09c-.09.39-.17.8-.27,1.23s-.2.9-.3,1.37c-.42,2-.75,3.61-1,4.76-.16.81-.33,1.55-.51,2.21,2.13.34,3.5.58,5.62,1,.15-1.26.36-2.62.63-4.07.16-.88.5-2.54,1-4.84C150.42,64.16,148.7,63.61,147,63.09Z" transform="translate(-4.5 -4.5)"/><path class="cls-12" d="M171.86,73l-2-1c-.18.62-.37,1.25-.58,1.92a38.55,38.55,0,0,1-3.64,8.67c-1.14,1.77-2.31,2.63-3.58,2.63a2.62,2.62,0,0,1-.73-.1c-1.56-.42-2.33-1.88-2.3-4.34a40.6,40.6,0,0,1,1.64-9.21c.32-1.19.65-2.29,1-3.31l-.86-.37-.14-.06c-1.28-.5-2.58-1-3.87-1.46-.17.58-.35,1.22-.54,1.94a53.25,53.25,0,0,0-1.55,7.3,32.42,32.42,0,0,0-.21,4.69,12,12,0,0,0,1.58,6.17,6.73,6.73,0,0,0,4.07,2.75,6.91,6.91,0,0,0,4.93-.31,12.51,12.51,0,0,0,4.7-4.46,34,34,0,0,0,2.36-4.11,51,51,0,0,0,2-4.71c.16-.43.29-.85.44-1.27C173.68,73.88,172.77,73.41,171.86,73Z" transform="translate(-4.5 -4.5)"/><path class="cls-12" d="M189,82.48a2.39,2.39,0,0,0-.13.21A11.38,11.38,0,0,1,187,84.75a8.74,8.74,0,0,1-1.58,1.08,3.07,3.07,0,0,1-1.31.24,8.18,8.18,0,0,1-.94-.06,1.73,1.73,0,0,1-1.34-.81,3,3,0,0,1,.25-2.58c.56-1.23,1.06-2.35,1.51-3.37q-2.29-1.34-4.62-2.6l-1,2.83c-2.33,6.26-4,10.64-4.83,12.66-.3.73-.69,1.54-1,2.33s-.75,1.57-.92,2a34.84,34.84,0,0,0,4.76,1.66c.07-.31.15-.64.22-.9.19-.62.62-1.77,1.34-3.51.18-.43.36-.88.53-1.31.78-2,1.06-2.66,1.58-2.91a5.5,5.5,0,0,1,2.25-.3l1.54,0c.6,0,1.24,0,1.87,0a9.85,9.85,0,0,0,4.21-.64,13.62,13.62,0,0,0,3.93-3.47Q191.16,83.81,189,82.48Z" transform="translate(-4.5 -4.5)"/><path class="cls-4" d="M131.72,60.86,124,82.92a3.48,3.48,0,0,1-6.65-1.18l2.11-23.37Z" transform="translate(-4.5 -4.5)"/><path class="cls-13" d="M119.32,81.79l1.91-21.07,7.86,1.59-7,20s-.27.93-1.54.68A1.3,1.3,0,0,1,119.32,81.79Z" transform="translate(-4.5 -4.5)"/><path class="cls-4" d="M124.81,62.44l-2.8-.57-1.78,20c0,.1.2.15.32.18Z" transform="translate(-4.5 -4.5)"/><path class="cls-4" d="M117.52,55.19a8.24,8.24,0,0,0,6.59,9.75,8.54,8.54,0,0,0,10.09-6.38,8.23,8.23,0,0,0-6.59-9.74A8.53,8.53,0,0,0,117.52,55.19Z" transform="translate(-4.5 -4.5)"/><path class="cls-14" d="M119.48,55.59a6.3,6.3,0,0,0,5,7.45,6.53,6.53,0,0,0,7.72-4.87,6.3,6.3,0,0,0-5-7.45A6.52,6.52,0,0,0,119.48,55.59Z" transform="translate(-4.5 -4.5)"/><path class="cls-15" d="M122.72,51.37a5.65,5.65,0,0,0-1.61,2.85A5.77,5.77,0,0,0,125.7,61a6.07,6.07,0,0,0,6.6-3.2c0,.13,0,.25-.06.37A6.53,6.53,0,0,1,124.52,63a6.22,6.22,0,0,1-1.8-11.67Z" transform="translate(-4.5 -4.5)"/><path class="cls-3" d="M126.06,52.43c-1,.8-.79,2.47.36,3.74s2.84,1.63,3.79.83.78-2.47-.37-3.73S127,51.63,126.06,52.43Z" transform="translate(-4.5 -4.5)"/><path class="cls-3" d="M181.69,111.73c.08.34.15.68.2.93a3.47,3.47,0,0,1,.08.43l2.24-.53s0-.18-.08-.44-.13-.62-.21-1-.16-.69-.22-1l-.12-.43-2.21.62.1.42C181.54,111.06,181.63,111.39,181.69,111.73Z" transform="translate(-4.5 -4.5)"/><path class="cls-3" d="M180.31,107l.44,1.32,2.2-.69-.46-1.35c-.24-.67-.49-1.33-.49-1.33l-2.18.74Z" transform="translate(-4.5 -4.5)"/><path class="cls-3" d="M182,121.12c0,.16-.08.34-.12.51-.09.35-.16.7-.25,1l-.14.42,2.19.13.15-.47c.09-.28.17-.66.27-1,0-.19.09-.38.13-.56s.06-.34.08-.48.08-.47.08-.47l-2.25.11-.07.44C182.07,120.81,182.05,121,182,121.12Z" transform="translate(-4.5 -4.5)"/><path class="cls-3" d="M182.36,116.67c0,.34,0,.69,0,1s0,.43,0,.43l2.26-.27v-.46a8.49,8.49,0,0,0,0-1c0-.37,0-.73,0-1s0-.45,0-.45l-2.25.43s0,.17,0,.43S182.34,116.32,182.36,116.67Z" transform="translate(-4.5 -4.5)"/><polygon class="cls-3" points="165.14 124.2 164.07 126.49 169.54 129.03 167 134.5 169.29 135.57 171.84 130.1 177.31 132.64 178.38 130.35 172.9 127.81 175.45 122.34 173.15 121.27 170.61 126.74 165.14 124.2"/><path class="cls-4" d="M185.31,120.08l-11,11.41a2.16,2.16,0,0,0-.1,2.9,2.07,2.07,0,0,0,2.67.65l13.35-8.48Z" transform="translate(-4.5 -4.5)"/><path class="cls-13" d="M176.31,133.87l12-7.65-3.16-4.13-10,10.35a.8.8,0,0,0,0,1.12A.84.84,0,0,0,176.31,133.87Z" transform="translate(-4.5 -4.5)"/><path class="cls-4" d="M186.31,124.64l1.13,1.48L176,133.36c-.06,0-.15-.08-.2-.14Z" transform="translate(-4.5 -4.5)"/><path class="cls-4" d="M192.68,126.7a5.33,5.33,0,0,1-7.66-.87,5.77,5.77,0,0,1,1-7.92,5.33,5.33,0,0,1,7.66.87A5.76,5.76,0,0,1,192.68,126.7Z" transform="translate(-4.5 -4.5)"/><path class="cls-14" d="M191.9,125.67A4.09,4.09,0,0,1,186,125a4.42,4.42,0,0,1,.74-6,4.08,4.08,0,0,1,5.86.66A4.42,4.42,0,0,1,191.9,125.67Z" transform="translate(-4.5 -4.5)"/><path class="cls-15" d="M193.5,122.45a3.94,3.94,0,0,1-1.24,1.83,3.74,3.74,0,0,1-5.34-.6,4.05,4.05,0,0,1,.05-4.88,1.49,1.49,0,0,0-.2.15,4.42,4.42,0,0,0-.74,6,4.09,4.09,0,0,0,5.87.67A4.43,4.43,0,0,0,193.5,122.45Z" transform="translate(-4.5 -4.5)"/><path class="cls-3" d="M191.93,120.81a1.82,1.82,0,0,1-2.33,1c-1.08-.29-1.78-1.17-1.56-2a1.81,1.81,0,0,1,2.33-1C191.44,119.13,192.14,120,191.93,120.81Z" transform="translate(-4.5 -4.5)"/><path class="cls-4" d="M183.18,160.67a45.52,45.52,0,0,1,4.44-1.73c4.87-1.71,10.38-3.64,10.18-8.33a5.5,5.5,0,0,0-3.4-4.83,7.68,7.68,0,0,0-3.58-.45c-3.78.44-6.74,3.71-9.35,6.92a8.36,8.36,0,0,0,.77-2.07,6.21,6.21,0,0,0-1.13-5.45,6.63,6.63,0,0,0-5.31-2.13l-.47,0c-2.22.25-4.15,1.75-5.44,4.21-1.42,2.72-2,6.47-1.83,11.16-5.21-2.11-12.41-6.66-18.77-11.91a27.36,27.36,0,0,1,1.35-11.59,24.62,24.62,0,0,1,3-.57,29.67,29.67,0,0,0,3.14-.57c5.78-1.5,12.72-5.57,13.28-12.06.06-.72.5-7.08-3.22-9-2.22-1.13-4.5-1-7.42.6a8,8,0,0,1-3.6-.53,8.7,8.7,0,0,0-1.95-5,9.63,9.63,0,0,0-3.5-2.65c-1.53-3.31-6.57-5.83-9.82-5.62a14.78,14.78,0,0,0-7.6,2.5,4.1,4.1,0,0,0-1.4-2.25,6,6,0,0,0-4.72-1,21,21,0,0,0-3,.63c-.33-.72-.25-.82-.1-.9a15.56,15.56,0,0,0,4.21-2.29,8.59,8.59,0,0,0,3.59-6.34c.16-3.51-.82-5.66-2.92-6.39-1.75-.62-4.05,0-6.69,1.78a16,16,0,0,0-2.13,1.72l-.74.65a1.43,1.43,0,0,1-.29.08c-.29,0-.45-.29-.69-1.4l-.06-.28c-.48-2.1-.46-2.43.89-3.18,2.26-1,6.42-3,6.37-7.58,0-3.19-1.74-5.33-4.58-5.74a7.09,7.09,0,0,0-1.9,0c-4.17.49-9.47,4.16-11.27,9.49A214.12,214.12,0,0,1,87.59,89.74l-1.48.75a33.23,33.23,0,0,0-5.88,4.07c-2.51,2.18-3.89,4.21-4.12,6a16.29,16.29,0,0,0-5,3,14.22,14.22,0,0,0-4.89-2.85,33.71,33.71,0,0,0-6.93-1.79l-1.65-.2a215.27,215.27,0,0,1-22.53-3.53,15.12,15.12,0,0,0-12.71-5.23,8.14,8.14,0,0,0-2.92.87c-2.52,1.36-3.39,4-2.32,7,1.54,4.33,6.11,4.72,8.59,4.92,1.53.24,1.66.53,1.94,2.68l0,.28c.07.46.18,1.24,0,1.47a.69.69,0,0,1-.47.11l-.91-.36a15.38,15.38,0,0,0-2.59-.88c-3.08-.76-5.47-.55-6.9.63-1.72,1.41-1.89,3.77-.53,7a8.59,8.59,0,0,0,5.55,4.71,15.3,15.3,0,0,0,4.74.7c.17,0,.28.09.22.88-.33,0-.69.06-1.06.11-2,.23-4.83.79-6.07,2.9a5,5,0,0,0,.14,4.84,5.38,5.38,0,0,0,3.3,2.91,9.11,9.11,0,0,0,3.88.28A30.83,30.83,0,0,0,37,127.46c5,2.12,12.25,2.23,17,1.67.57-.07,1.08-.15,1.52-.23l.43-.07a33,33,0,0,0,9.26-2.89c.43.18.87.33,1.31.47l.15.06a58,58,0,0,0,8.13,13.62,86.79,86.79,0,0,0,13,13.11c4.56,3.52,11.71,8.11,20,10.15a57.71,57.71,0,0,1,2.63,9.47c1.56,8.24-.26,13.38-2.62,14.69a10.31,10.31,0,0,1-3,.75c-.62.07-1.18.1-1.55.11-1.09,0-2.17.12-3.21.25a24.21,24.21,0,0,0-5.26,1.13c-2.18.77-4.65,2.63-5.27,5a6.32,6.32,0,0,0,1.51,5.59,6.2,6.2,0,0,0,5.29,1.73,7.45,7.45,0,0,0,4.22-1.8c2.87-2.55,7.3-5,9.47-5.27a1.77,1.77,0,0,1,.65,0s0,0,0,.09c-.41.87-2.16,2.11-3.45,3l-.07.05c-.52.37-1,.7-1.54,1a19.58,19.58,0,0,0-2.11,1.48A7.43,7.43,0,0,0,101,207a8.21,8.21,0,0,0,3.66,6,5.69,5.69,0,0,0,3.71.85,6.51,6.51,0,0,0,1.82-.5,10.31,10.31,0,0,0,3.78-3,36,36,0,0,0,3.27-5.43l.71-1.35c1.95-3.74,3.79-7.28,6.58-7.61a4.51,4.51,0,0,1,1.31.07c.69.27,1.23,3,1.63,4.95.2,1,.41,2.09.67,3.13a8.24,8.24,0,0,0,5.19,5.55,8.55,8.55,0,0,0,3.31.26,9.53,9.53,0,0,0,4.86-2.13,8.05,8.05,0,0,0,2.82-6.28c-.37-3.46-4.08-6.22-6.34-7.15a17.55,17.55,0,0,1-5.87-4.08c-.74-1.13-1-2-.73-2.57.42-.9,2.46-1.35,5.36-1.16h.17a17.34,17.34,0,0,1,4.3.4,18.63,18.63,0,0,0,5.11.28,7.32,7.32,0,0,0,5.16-2.76,7.08,7.08,0,0,0,1.08-6.39,6.38,6.38,0,0,0-4-4.33,8.82,8.82,0,0,0-3.91-.34c-2.91.34-5.9,1.79-8.73,3.24a14.63,14.63,0,0,1-4.63,1.5,5.58,5.58,0,0,1-4.53-1.16A46.07,46.07,0,0,1,117,164.33c.38,0,.76,0,1.15,0a17.18,17.18,0,0,0,2-.09c2.33-.27,6.56-1,9.41-2.43a27.12,27.12,0,0,0,6.44,2.59,20.25,20.25,0,0,0,7.16.61,12.87,12.87,0,0,0,6.12-2.14,4,4,0,0,0,1.88-3.66c4.33,1.75,11.1,6.06,11.82,9.94a6.14,6.14,0,0,1-1.87.72l-.11,0c-2.48.63-5.57,1.42-6.87,4.08a5.08,5.08,0,0,0,.29,5.12,9.78,9.78,0,0,0,7.29,4.13c.38,0,.75,0,1.1-.07,3.34-.39,5.73-2.57,7.31-6.66a8.43,8.43,0,0,1,6.57-4.22,24.73,24.73,0,0,1,7.81.76,36,36,0,0,0,6.27.95,11.8,11.8,0,0,0,1.57-.08,9.2,9.2,0,0,0,3.15-.91,6.49,6.49,0,0,0,1.55-1.08,5.68,5.68,0,0,0,1.72-3.4,7.16,7.16,0,0,0-2.13-6.17,7.46,7.46,0,0,0-6.5-2,18.23,18.23,0,0,0-2.49.68c-.56.18-1.14.37-1.76.54-.45.12-.92.26-1.42.42a19,19,0,0,1-2.86.72,2.7,2.7,0,0,1-.47,0C180.92,162.1,181.15,161.66,183.18,160.67Z" transform="translate(-4.5 -4.5)"/><path class="cls-16" d="M156.39,115.81l.65-.48a8.43,8.43,0,0,1-2.45-.72,4.07,4.07,0,0,1-.87,1.11A20,20,0,0,0,156.39,115.81Z" transform="translate(-4.5 -4.5)"/><path class="cls-17" d="M133.7,106.16a7.12,7.12,0,0,1,.79,1.31c1.27.89,3,.9,3.8-.92a5.5,5.5,0,0,0,.16,1.17.07.07,0,0,0,0,0c.57-2,3.29-3.52,6.63-3.39a13.51,13.51,0,0,1,2.19.27c-3.67-4.44-9.94-3.11-13.59.32a7.08,7.08,0,0,1,1.86,2.52A6.64,6.64,0,0,0,133.7,106.16Z" transform="translate(-4.5 -4.5)"/><path class="cls-16" d="M133.7,106.16a7.12,7.12,0,0,1,.79,1.31c1.27.89,3,.9,3.8-.92a5.5,5.5,0,0,0,.16,1.17.07.07,0,0,0,0,0c.57-2,3.29-3.52,6.63-3.39a13.51,13.51,0,0,1,2.19.27c-3.67-4.44-9.94-3.11-13.59.32a7.08,7.08,0,0,1,1.86,2.52A6.64,6.64,0,0,0,133.7,106.16Z" transform="translate(-4.5 -4.5)"/><path class="cls-17" d="M144.65,141.21a11.57,11.57,0,0,1,1.47-6.3,13.72,13.72,0,0,0-3.38,4.16,17.94,17.94,0,0,0-1.11,8.42,22.64,22.64,0,0,1-1.45-7.51,9.71,9.71,0,0,0-1,7.14c.5,2.38,2.42,5.46-.29,7.21h0c3.31-.72,3-5.14,3-5.14,2.76,5.13-.52,6.14-1.72,6.57A5.48,5.48,0,0,1,139,156c-4.7.56-11.59-4.13-13.76-6.1-6.67-6-13-17.26-16.8-26.15-.3.8-.38,2.26-.08,5.47-1.74-3.4-2.23-8.5-.65-8.92,3-.9,9.51,1.36,14.71,6.69-4.61-2.54-8.78-5-11.28-5a24.49,24.49,0,0,1,5.88,3.62,58.85,58.85,0,0,0-6.83-2.63,38.92,38.92,0,0,0,12.07,9.51c5.74,2.83,11.48,3.54,16.61,2s9-4.65,13.27-8l.13-.1c7.36-5.86,10.7-6.31,11.7-5.55s.76,2.61-1,5c0,0-.6-5.94-6.2-.61-1.19,1.38.27,2.63,2.73,2-1.83,1.87-5.16,2.09-6.66,4.27l.44-.06a26.44,26.44,0,0,0,2.87-.52c4.88-1.27,10.73-4.61,11.19-9.82.17-2.07-.17-5.45-1.84-6.3-2.61-1.33-6.32,1.48-11,5-5.14,3.9-11.23,9.39-20.51,9.79,0,0,11.77-5,19.41-11.42.2-.18.41-.35.61-.51a30.27,30.27,0,0,1-12.17-4.53,2,2,0,0,0-1.41.73c.89,2.63.2,6-2,7.63,0,0,0,0,0,0v0s0,0,0,0a7.9,7.9,0,0,0,.68-1.95,7.46,7.46,0,0,1-4.84,2.45h0c-4.16.48-9.05-1.76-11.12-5.13a5.94,5.94,0,0,1,.09-6.7,7.59,7.59,0,0,1,5.5-3.56,9.53,9.53,0,0,1,4.57.68c-7.82-6.74-17.89,1.9-16.44,8.53a7.67,7.67,0,0,1,3.68,1.63c-1.17-.21-2.1-.37-2.85-.47a38,38,0,0,1,7.62,5.43c-11.58-6.6-19-7-19.49-6.13-4.19,7,3.6,21.25,3.85,21.52l0,0s0,0,0,0l0,0a18.23,18.23,0,0,1-4.58-5.82c0,2.55,2,6.6,3.39,10.26a21.21,21.21,0,0,1-5.43-13,37.77,37.77,0,0,0,.06,7.58,15.9,15.9,0,0,1-.47-12.49c-.51-3.77,0-7.51,2.11-10.31,2.61-.72,6-.07,9.53,1.35a12.16,12.16,0,0,1,1.74-6.91c-5.21.37-11.73-1.3-19.8-5.06,0,0,12.33,3,19.18,3.13a6.4,6.4,0,0,0,1.6-3.42c.19-1.86-3.39-4.4-6.79-6-7.34-3.37-15.75-4.58-24,.42,0,0,1.24-4.25,11.71-5.05,4.39-.33,9.15,1.22,13.05,3,1.6.73,6.69,3.24,8.18,6.18,1,.19,2.72.6,2.72.6a6.77,6.77,0,0,1-2.16.93l-.15,0c0,.09,0,.19,0,.29a6.3,6.3,0,0,1-.29,1.37,16,16,0,0,1,3.56-2,10.08,10.08,0,0,1,7.83.64,2.58,2.58,0,0,0-.64-2.27c-1.33-1.09-4.59-.15-6.34.37l-.8.22v0l0,0a4.38,4.38,0,0,1-1.32-3.89,11.5,11.5,0,0,1-6.43-1c5.21-.09,8.63-1.07,11.36-3.21A6.29,6.29,0,0,0,129,89.4c.07-1.55-.08-3.5-1.24-3.9-.93-.33-2.56.21-4.45,1.49a19.47,19.47,0,0,0-3.5,3,1.42,1.42,0,0,0,.64.33,1.87,1.87,0,0,0-.91,1.94c-8.16,1.62-11.75-.18-11.75-.18,3.4-.26,8.23-.48,9.71-1.65-1.85-.83-3.23-5.15-2.06-7.26-10.14,3-13.85,7.35-13.85,7.35,1.36-5,12.74-8.77,13.83-9.33.37-.2.82-.4,1.29-.62,2.41-1.11,6.06-2.79,6-5.65,0-2-.83-3.06-2.42-3.28-2.84-.41-7.06,1.93-9.33,5.5a4.17,4.17,0,0,1,1.23-.52c-.5.45-1.39,2,.14,2.61-7.1,5-16,8.79-23.65,12.72l-1.48.75a31.3,31.3,0,0,0-5.38,3.73,9.91,9.91,0,0,0-3.18,4l1.3-.35a19.19,19.19,0,0,1,15.4,3.1s-8.3-2.89-14.72-1.18c-4.3,1.15-6.48,2-8.78,5.2a5.09,5.09,0,0,1-1.84,3l0,.06a29,29,0,0,0,3.07.13,9.94,9.94,0,0,1-6.54.8c-2-.51-5.39-2.24-.92-3.46-.33,1.07.62,1.74,2.09,2.14,1.86-1.16,2.59-2.65,2.38-3.44-.29-1.14-2-2.35-4.74-3.41A31.73,31.73,0,0,0,59,101.39l-1.64-.19c-8.58-1-18.2-1.58-26.58-3.79,1.24-1-.14-2.25-.77-2.5a4.3,4.3,0,0,1,1.33.06C28,92.41,23.23,91.66,20.7,93c-1.41.76-1.8,2.08-1.15,3.92,1,2.69,5,3,7.61,3.22.52,0,1,.08,1.43.14,1.21.15,13.21-.2,16.2,4,0,0-5-2.83-15.53-2.13,1.82,1.58,2,6.1.56,7.52,1.8.59,6.4-.86,9.68-1.8,0,0-2.74,2.93-11,4.23A1.88,1.88,0,0,0,27,110.61a1.41,1.41,0,0,0,.49-.54,20.16,20.16,0,0,0-4.32-1.63c-2.22-.55-3.94-.5-4.7.13-.95.78-.42,2.65.18,4.09a6.28,6.28,0,0,0,4,3.3c3.31,1.08,6.86.82,11.77-.9a11.49,11.49,0,0,1-5.7,3.12,4.38,4.38,0,0,1,.1,4.11l-.05,0v0l-.82.06c-1.82.13-5.21.35-6.08,1.84a2.68,2.68,0,0,0,.24,2.5,3,3,0,0,0,1.82,1.6c1.59.52,4.8.42,11.1-2.7a7.55,7.55,0,0,1-2.56-2.87c0-.09-.08-.18-.12-.27l-.15,0a6.66,6.66,0,0,1-2.35-.14s1.46-1,2.35-1.5c.38-3.26,4.3-7.37,5.54-8.62,3-3,7-6.12,11.22-7.32,10.09-2.86,12.73.71,12.73.71-9.49-1.85-17,2.18-22.69,7.88-2.66,2.64-5.14,6.26-4.32,7.94,1.47,3,5.92,4.2,9.39,4.67a41.85,41.85,0,0,0,11.57-.22c7.21-1.2,12.53-4.31,18.87-8.38a23.75,23.75,0,0,1-6.56,6c2.33,1.56,6.54.85,6.54.85a6.06,6.06,0,0,1-3.39,1.42,9.38,9.38,0,0,1-1.68,0c3.65,9.13,12.61,18.94,19.81,24.48a54,54,0,0,0,17.94,9.4,54.74,54.74,0,0,0-4.87-9.07c8,4.55,16.34,30.35,9.14,38.71a24.37,24.37,0,0,1-8.43,2,24.43,24.43,0,0,0-7.25,1,5.25,5.25,0,0,0-3.31,3.11,2.83,2.83,0,0,0,.85,2.64c.91,1,3.42,1.45,5.75-.36a28.14,28.14,0,0,1,7.39-4.09c2-.74,4.75-1.46,6.46-.69a2.63,2.63,0,0,1,.8.57c1.41-.69.6-2.74.6-2.74s5.13,1.74-5.54,9.46c-1.28.94-2.52,1.79-3.43,2.56a4.74,4.74,0,0,0-1.68,4,4.42,4.42,0,0,0,2.1,3.46c2.6,1.62,5.23-1.41,5.73-2a32.44,32.44,0,0,0,3-5c2.46-4.62,5.45-10.25,10.5-10.27,1.35-.84-1.25-2.56-1.25-2.56,4.33-.06,4.79,3.2,7.42,13a4.61,4.61,0,0,0,3.09,3.22,5.47,5.47,0,0,0,5.15-1.29,3.59,3.59,0,0,0,1.5-3.2c-.23-2.21-2.53-4.57-4.2-5.29-6.43-2.75-10.76-7.55-9.37-11.58,0,0,.06,2.41,1.2,2.5,0-3.16,4.48-5,13-3.92,3.17.39,6.12,1,7.71-1a4.31,4.31,0,0,0,.62-3.92,3.66,3.66,0,0,0-2.25-2.52c-2.87-1-6.57.94-10.49,2.95a22.57,22.57,0,0,1-9.32,2.46c-4.58-1-16-14.95-15.83-28a42.31,42.31,0,0,0,2.5,7.22c.52,0,1.1.09,1.37.1a29.58,29.58,0,0,0,9.15-1.32c-5.18-1.19-10.6-5-12.89-9.43,0,0,8.09,7.51,12.17,7.13A43,43,0,0,1,114,145.87s21.82,21.89,32.67,14.35c1.58-1.09,1.8-3.46,1.21-6.34-1.39-6.87-1.86-12.78-.16-18.61A17.65,17.65,0,0,0,144.65,141.21Zm-3.21-25.85c2.34,2.75,3.08,4.23,7.67,4.25-1,1.35-4.31,3.45-6.75,4.49,1.3-2.28,1-4.49-1.6-4.07C141.54,118.14,141.94,116.75,141.44,115.36Z" transform="translate(-4.5 -4.5)"/><path class="cls-16" d="M112.93,192.94a2.63,2.63,0,0,1,.8.57,1.39,1.39,0,0,0,.73-.83c-5.54-3.5-12.43,3.37-18.17,3.84-3.65.12-2.94-1.45-2.51-3a4,4,0,0,0-1.3,1.93,2.83,2.83,0,0,0,.85,2.64c.91,1,3.42,1.45,5.75-.36a28.14,28.14,0,0,1,7.39-4.09C108.47,192.89,111.22,192.17,112.93,192.94Z" transform="translate(-4.5 -4.5)"/><path class="cls-16" d="M117.71,195.79c-3.39,3.54-4.44,7.92-8.58,10.87-3.43,2.57-4.67-2.26-4-3.62a4.73,4.73,0,0,0-1.41,3.73,4.42,4.42,0,0,0,2.1,3.46c2.6,1.62,5.23-1.41,5.73-2a32.44,32.44,0,0,0,3-5c2.46-4.62,5.45-10.25,10.5-10.27a1,1,0,0,0,.33-.34C122.49,191.9,119.75,193.65,117.71,195.79Z" transform="translate(-4.5 -4.5)"/><path class="cls-16" d="M130.1,199.29c.32,1.2.67,2.54,1.07,4a4.61,4.61,0,0,0,3.09,3.22,5.47,5.47,0,0,0,5.15-1.29,3.59,3.59,0,0,0,1.5-3.2,5.43,5.43,0,0,0-.89-2.3C139.41,205.26,132.77,205.08,130.1,199.29Z" transform="translate(-4.5 -4.5)"/><path class="cls-16" d="M149.89,178.83a3.66,3.66,0,0,0-2.25-2.52,5.66,5.66,0,0,0-2.44-.22c6.63,3.42-.21,7.09-7.3,7.39,1.13,0,2.35.13,3.66.29,3.17.39,6.12,1,7.71-1A4.31,4.31,0,0,0,149.89,178.83Z" transform="translate(-4.5 -4.5)"/><path class="cls-16" d="M115.3,175.23a44.18,44.18,0,0,0-1.73-5.17,32,32,0,0,0-1.36-2.9c2.54,8.46,3.07,17.77-.74,22.2q-.68.31-1.44.6C116.7,189.5,116.78,180.71,115.3,175.23Z" transform="translate(-4.5 -4.5)"/><path class="cls-16" d="M140.31,126.6a75.57,75.57,0,0,0,13.07-8.37c.2-.18.41-.35.61-.51a30.27,30.27,0,0,1-12.17-4.53,2,2,0,0,0-1.41.73c.89,2.63.2,6-2,7.63,0,0,0,0,0,0v0s0,0,0,0a7.9,7.9,0,0,0,.68-1.95,7.19,7.19,0,0,1-3.69,2.23C138,122.28,140.19,123.25,140.31,126.6Zm1.13-11.24c2.34,2.75,3.08,4.23,7.67,4.25-1,1.35-4.31,3.45-6.75,4.49,1.3-2.28,1-4.49-1.6-4.07C141.54,118.14,141.94,116.75,141.44,115.36Z" transform="translate(-4.5 -4.5)"/><path class="cls-16" d="M128.25,106.75l.46-.07a9.53,9.53,0,0,1,4.57.68,9.47,9.47,0,0,0-5.82-2.44A2,2,0,0,1,128.25,106.75Z" transform="translate(-4.5 -4.5)"/><path class="cls-16" d="M128.33,124.55c-1.13-.94-3-3.48-1.72-4.28a10.25,10.25,0,0,1-3.49-3.33,6.36,6.36,0,0,1-.75-1.67,3.63,3.63,0,0,1-2.72-.38,3.49,3.49,0,0,1-2.23-3.5,7.24,7.24,0,0,0-.58,4.5,7.67,7.67,0,0,1,3.68,1.63c-1.17-.21-2.1-.37-2.85-.47a38,38,0,0,1,7.62,5.43l-.28-.15C126.12,123.07,127.22,123.82,128.33,124.55Z" transform="translate(-4.5 -4.5)"/><path class="cls-16" d="M123.88,128.06a12.12,12.12,0,0,0-2.43-3.52A17.4,17.4,0,0,0,111,119.71a3.25,3.25,0,0,0-2.24.43c3.29-.18,9,2.12,13.6,6.87l-2.83-1.56a2.9,2.9,0,0,0-1.39.21,14.31,14.31,0,0,0,1.92,2.92A8.51,8.51,0,0,1,123.88,128.06Z" transform="translate(-4.5 -4.5)"/><path class="cls-16" d="M165.5,114.82c-1.88-1-4.33.23-7.31,2.31a3.65,3.65,0,0,1,3,.28c1,.78.9,1.91.58,3.07l0,.29a2.69,2.69,0,0,1,2.21.12c1,.74.76,2.61-1,5,0,0-.6-5.94-6.2-.61-1.19,1.38.27,2.63,2.73,2-1.83,1.87-5.16,2.09-6.66,4.27l.44-.06a26.44,26.44,0,0,0,2.87-.52c4.88-1.27,10.73-4.61,11.19-9.82C167.51,119.05,167.17,115.67,165.5,114.82Z" transform="translate(-4.5 -4.5)"/><path class="cls-16" d="M120.09,128.58a3.1,3.1,0,0,0-1,.72,3.1,3.1,0,0,1,1-.72,14.31,14.31,0,0,1-1.92-2.92,2.64,2.64,0,0,0-.37.2,2.64,2.64,0,0,1,.37-.2c-.08-.16-.16-.32-.23-.48.07.16.15.32.23.48a2.9,2.9,0,0,1,1.39-.21c-3.45-1.89-6.47-3.4-8.45-3.46a24.49,24.49,0,0,1,5.88,3.62,58.85,58.85,0,0,0-6.83-2.63,38.92,38.92,0,0,0,12.07,9.51c5.72,2.82,11.43,3.53,16.54,2.07C132,135.74,124.37,133.63,120.09,128.58Z" transform="translate(-4.5 -4.5)"/><path class="cls-16" d="M109.83,132.4c.49-1.09,1.49-1,2.55-.39-1.5-2.82-2.84-5.63-4-8.24-.3.8-.38,2.26-.08,5.47a16,16,0,0,1-1.46-4.69,1.33,1.33,0,0,1-.38.4c-.8.47-1.34.11-1.71-.6a44.62,44.62,0,0,0,4.51,12.9c1,1.36,2,2.68,2.93,4.06C111,138.32,108.59,135.24,109.83,132.4Z" transform="translate(-4.5 -4.5)"/><path class="cls-16" d="M116.67,158.27c-1.66,1-3.1-.66-4-2.22a48.31,48.31,0,0,0,1.85,4.88c.52,0,1.1.09,1.37.1a29.58,29.58,0,0,0,9.15-1.32,21.36,21.36,0,0,1-7.76-3.68A1.67,1.67,0,0,1,116.67,158.27Z" transform="translate(-4.5 -4.5)"/><path class="cls-16" d="M72.57,126.46c-.24.26-.51.52-.78.77.27-.25.54-.51.78-.77l-.27-.63.27.63A5.41,5.41,0,0,0,73.63,125a6.79,6.79,0,0,1-2.5.78,9.38,9.38,0,0,1-1.68,0c3.65,9.13,12.61,18.94,19.81,24.48a54,54,0,0,0,17.94,9.4c-.65-1.51-1.31-2.86-1.91-4C91.14,151,78.49,140.28,72.57,126.46Z" transform="translate(-4.5 -4.5)"/><path class="cls-16" d="M33.22,123.89a4.9,4.9,0,0,1-2.49,1c-2.52.73-7.13,1.71-8-1.45a2.15,2.15,0,0,0-.85.78,2.68,2.68,0,0,0,.24,2.5,3,3,0,0,0,1.82,1.6c1.59.52,4.8.42,11.1-2.7A8.19,8.19,0,0,1,33.22,123.89Z" transform="translate(-4.5 -4.5)"/><path class="cls-16" d="M26.09,114a9.94,9.94,0,0,1-3.45-.71c-2.13-.77-3.7-3.1-2.46-5.21a2.86,2.86,0,0,0-1.7.5c-.95.78-.42,2.65.18,4.09a6.28,6.28,0,0,0,4,3.3c3.31,1.08,6.86.82,11.77-.9a11.49,11.49,0,0,1-5.7,3.12,4.38,4.38,0,0,1,.1,4.11l-.05,0v0l-.5,0c.54,0,1.07,0,1.6,0,.17-.11,1.5-1,2.33-1.49.38-3.26,4.3-7.37,5.54-8.62.57-.56,1.17-1.13,1.8-1.68C35.29,112.29,31,114,26.09,114Z" transform="translate(-4.5 -4.5)"/><path class="cls-16" d="M21.29,96a4.87,4.87,0,0,1,.07-3.23,4.88,4.88,0,0,0-.66.29c-1.41.76-1.8,2.08-1.15,3.92,1,2.69,5,3,7.61,3.22.52,0,1,.08,1.43.14.62.08,4.05,0,7.66.51-4.33-1.33-8.85-1.74-13.18-3A3.53,3.53,0,0,1,21.29,96Z" transform="translate(-4.5 -4.5)"/><path class="cls-16" d="M61.44,109.62a3.12,3.12,0,0,1,.35,1.43,10.25,10.25,0,0,0,6.82.39,8.8,8.8,0,0,1-2.07-.23c-2-.51-5.39-2.24-.92-3.46-.33,1.07.62,1.74,2.09,2.14,1.86-1.16,2.59-2.65,2.38-3.44-.29-1.14-2-2.35-4.74-3.41A31.73,31.73,0,0,0,59,101.39l-1.64-.19c-2-.25-4.14-.47-6.27-.69a6.14,6.14,0,0,1,1.59,1.4c.71.7.11,1.56-.67,2.29,7.6-1.41,9.7,1.42,9.7,1.42a22.33,22.33,0,0,0-11.29.59C54.71,105.33,59.52,105.41,61.44,109.62Z" transform="translate(-4.5 -4.5)"/><path class="cls-16" d="M79.66,102.35c-3.64,1-5.66,2-7.77,4.92a5.09,5.09,0,0,1-1.84,3l0,.06c.53.06,1.08.09,1.62.11,5.06-7.23,14.57-8,22.61-5.52A31.55,31.55,0,0,0,79.66,102.35Z" transform="translate(-4.5 -4.5)"/><path class="cls-16" d="M30.78,106.4a4.69,4.69,0,0,1-1,3.29c1.28.42,4-.2,6.62-.92A6.68,6.68,0,0,1,30.78,106.4Z" transform="translate(-4.5 -4.5)"/><path class="cls-16" d="M38.56,117.8a7.74,7.74,0,0,0,.4,2.75,7.74,7.74,0,0,1-.4-2.75c-.3-.22-.6-.44-.9-.68.3.24.6.46.9.68.17-4.44,4.46-7.81,8.61-10.27a31,31,0,0,0-8.14,6c-2.66,2.64-5.14,6.26-4.32,7.94,1.47,3,5.92,4.2,9.39,4.67a41.85,41.85,0,0,0,11.57-.22c6.82-1.13,12-4,17.86-7.74C62.76,122.39,48.37,124.91,38.56,117.8Z" transform="translate(-4.5 -4.5)"/><path class="cls-16" d="M110.19,97.2a33.74,33.74,0,0,0-7.08-2.39c1.67,1.11,2.9,2.86,2.16,4.51-2.53,5.21-8.58,2.4-13.63,1.89a21.9,21.9,0,0,1,3.75,2s-8.3-2.89-14.72-1.18c-.35.09-.69.18-1,.28a31.55,31.55,0,0,1,14.58,2.52,28.48,28.48,0,0,1,6.66,3,28.48,28.48,0,0,0-6.66-3,34.87,34.87,0,0,1,9.76,6.25l.75-1-.75,1c.78.7,1.53,1.44,2.24,2.21-.71-.77-1.46-1.51-2.24-2.21-2.66,3.68-4.65,8.3-3.38,12.77a14.51,14.51,0,0,1,.61-1.68,14.51,14.51,0,0,0-.61,1.68,10.3,10.3,0,0,0,.54,1.46,10.3,10.3,0,0,1-.54-1.46c-1,3.49-.79,7.59,1.58,10.53a15.36,15.36,0,0,1,.42-10c-.51-3.77,0-7.51,2.11-10.31,2.61-.72,6-.07,9.53,1.35a12.16,12.16,0,0,1,1.74-6.91c-5.21.37-11.73-1.3-19.8-5.06,0,0,12.33,3,19.18,3.13a6.4,6.4,0,0,0,1.6-3.42C117.17,101.31,113.59,98.77,110.19,97.2Z" transform="translate(-4.5 -4.5)"/><path class="cls-16" d="M113.85,88.45a6.11,6.11,0,0,1,.24,2,3.48,3.48,0,0,1-.78,1l-.49.26c2.05-.23,3.88-.59,4.7-1.23-1.85-.83-3.23-5.15-2.06-7.26a50.07,50.07,0,0,0-5.32,1.9C111.79,85.32,113.14,87.07,113.85,88.45Z" transform="translate(-4.5 -4.5)"/><path class="cls-16" d="M118.73,78.47a9.67,9.67,0,0,1-2.22,2c-.11.12-.24.23-.36.35l.58-.27c2.41-1.11,6.06-2.79,6-5.65,0-2-.83-3.06-2.42-3.28a5.67,5.67,0,0,0-1.91.08A5.68,5.68,0,0,1,118.73,78.47Z" transform="translate(-4.5 -4.5)"/><path class="cls-16" d="M89.45,92.44a2.37,2.37,0,0,1,.12-.89l-.84.43-1.48.75a31.3,31.3,0,0,0-5.38,3.73,9.91,9.91,0,0,0-3.18,4l1.3-.35a17.61,17.61,0,0,1,8.42,0,2.69,2.69,0,0,1-.39-.82,2.47,2.47,0,0,1,.67-3,25.52,25.52,0,0,0-2.52,1.33s.61-2.1,4.61-3.62A1.6,1.6,0,0,1,89.45,92.44Z" transform="translate(-4.5 -4.5)"/><path class="cls-16" d="M123.62,101.73l-.8.22v0l0,0a4.38,4.38,0,0,1-1.32-3.89,11.5,11.5,0,0,1-6.43-1c5.21-.09,8.63-1.07,11.36-3.21A6.29,6.29,0,0,0,129,89.4c.07-1.55-.08-3.5-1.24-3.9-.73-.26-1.89,0-3.27.77,1.19,1,1.16,3.12.59,4.45a10,10,0,0,1-5.21,3.3,22.05,22.05,0,0,1-10,1.09c.36.15.73.31,1.08.48,1.6.73,6.69,3.24,8.18,6.18,1,.19,2.72.6,2.72.6a6.77,6.77,0,0,1-2.16.93l-.15,0c0,.09,0,.19,0,.29a6.3,6.3,0,0,1-.29,1.37,16,16,0,0,1,3.56-2,10.08,10.08,0,0,1,7.83.64,2.58,2.58,0,0,0-.64-2.27C128.63,100.27,125.37,101.21,123.62,101.73Z" transform="translate(-4.5 -4.5)"/><path class="cls-16" d="M104,134.49a25.19,25.19,0,0,1-1-5.19,22,22,0,0,0-.12,4.65A2,2,0,0,1,104,134.49Z" transform="translate(-4.5 -4.5)"/><path class="cls-16" d="M105.07,132.05a11,11,0,0,0,.7,3.41,1.39,1.39,0,0,1,1-.68h0A20.19,20.19,0,0,1,105.07,132.05Z" transform="translate(-4.5 -4.5)"/><path class="cls-16" d="M71.83,120.55a27.7,27.7,0,0,1-3.85,3,7.83,7.83,0,0,0,4.12,1,2,2,0,0,1-.2-.24C70.65,123.47,71.12,122,71.83,120.55Z" transform="translate(-4.5 -4.5)"/><path class="cls-16" d="M146.11,153.24l.82,1.25a3.14,3.14,0,0,1-1.3,4.19c-6,2.31-12.11.93-17.77-1.79,6.46,4,13.81,6.81,18.82,3.33,1.58-1.09,1.8-3.46,1.21-6.34-1.39-6.87-1.86-12.78-.16-18.61a17.65,17.65,0,0,0-3.08,5.94,11.57,11.57,0,0,1,1.47-6.3,13.72,13.72,0,0,0-3.38,4.16,17.94,17.94,0,0,0-1.11,8.42,22.64,22.64,0,0,1-1.45-7.51,9.71,9.71,0,0,0-1,7.14c.5,2.38,2.42,5.46-.29,7.21h0c3.31-.72,3-5.14,3-5.14,1.11,2.05,1.24,3.44.94,4.4C143.71,152.54,144.92,151.83,146.11,153.24Z" transform="translate(-4.5 -4.5)"/><path class="cls-3" d="M139.89,107.34c-.56,2.08,1.28,4.09,2.89,5.4a43.06,43.06,0,0,0,8.91,2.71,2.71,2.71,0,0,0,1.57-2.25c1-5.39-5.28-7.5-8-7.61S140.26,106,139.89,107.34Z" transform="translate(-4.5 -4.5)"/><path class="cls-3" d="M128.81,107.57a6.17,6.17,0,0,0-4.54,3,5.36,5.36,0,0,0,0,5.71c1.79,2.91,6.21,4.93,9.84,4.5h0c1.66-.19,4.42-1.23,5-3.66a6.22,6.22,0,0,0-1.48-5.37C135.81,109.47,132.18,107.17,128.81,107.57Z" transform="translate(-4.5 -4.5)"/><path class="cls-18" d="M145.88,105.65l-.62-.06c-2.62-.1-5,.37-5.37,1.75-.56,2.08,1.28,4.09,2.89,5.4.63.26,1.31.53,2,.8C142.53,111.31,140,106.52,145.88,105.65Z" transform="translate(-4.5 -4.5)"/><path class="cls-18" d="M132.73,108.16a8.32,8.32,0,0,0-3.92-.59,6.17,6.17,0,0,0-4.54,3,5.36,5.36,0,0,0,0,5.71,10.26,10.26,0,0,0,5.39,4C122,112.07,128,108.09,132.73,108.16Z" transform="translate(-4.5 -4.5)"/><path class="cls-17" d="M178.06,163.53a2.49,2.49,0,0,1,.08-1c.5-1.81,1.71-2.65,4.71-4.09,5.72-2.75,14.43-4.66,11.83-8.47-1.79-2.63-4.84-1.74-6.06-1a23.31,23.31,0,0,0-5.8,5c-2.35,2.86-4.33,6.45-8.92,7.78-2.73.78-6.64-.81-11.42-3.41a85.5,85.5,0,0,1-10.12-6.64,3.51,3.51,0,0,0-1.78,4.35c6.6,2.94,13.32,6.54,15.45,12,1.48-.52,1.95-3.21,1.95-3.21,1,5.57-3,6.59-6.3,7.42-2.21.57-4.31,1.1-5.11,2.75a2.61,2.61,0,0,0,.15,2.67,6.22,6.22,0,0,0,4.88,2.54c3.85,0,5.05-2.59,6.57-5.84.31-.67.63-1.36,1-2,1.36-2.58,2.8-4.54,5.38-5.72a29.92,29.92,0,0,0-2.65,3.89c3.45-2.22,8.71-1.13,13.14-.21a34.18,34.18,0,0,0,5.76.9c.8,0,4.81-.08,5.23-3.11a4.46,4.46,0,0,0-1.32-3.83,4.73,4.73,0,0,0-4.14-1.25c-1.18.21-2.62.61-4.15,1-12.77,3.26-10.82-1.79-10.82-1.79S176.64,164.18,178.06,163.53Z" transform="translate(-4.5 -4.5)"/><path class="cls-16" d="M157.35,155.26c-1.76-1.17-3.46-2.38-5-3.53a3.51,3.51,0,0,0-1.78,4.35c4.25,1.89,8.55,4.06,11.64,6.82-1.75-1.78-4-3.23-5.1-5.57A2.09,2.09,0,0,1,157.35,155.26Z" transform="translate(-4.5 -4.5)"/><path class="cls-16" d="M157,174.37a2.93,2.93,0,0,0-.43.65,2.61,2.61,0,0,0,.15,2.67,6.22,6.22,0,0,0,4.88,2.54c3.85,0,5.05-2.59,6.57-5.84l.34-.73C161.6,180.23,158,177.77,157,174.37Z" transform="translate(-4.5 -4.5)"/><path class="cls-16" d="M194.47,164.08c.58,3.92-1.92,5.45-7.51,5-5.08-.42-6.73-1.37-12.7-.86a6.08,6.08,0,0,0-.29-.85,31.41,31.41,0,0,0-2.09,3.18c3.45-2.22,8.71-1.13,13.14-.21a34.18,34.18,0,0,0,5.76.9c.8,0,4.81-.08,5.23-3.11a4.46,4.46,0,0,0-1.32-3.83C194.61,164.21,194.55,164.14,194.47,164.08Z" transform="translate(-4.5 -4.5)"/><path class="cls-16" d="M194.68,150a3.9,3.9,0,0,0-3.92-1.72c2.25,4.48-2,7-6.13,9.39C190.19,155.32,197,153.43,194.68,150Z" transform="translate(-4.5 -4.5)"/><path class="cls-19" d="M122,134.41c-.32-.17-.65-.35-1-.54a2.9,2.9,0,0,0-2.93-.06c-.94.65-.33,2.53.85,4.67,2.35,4.45,11.54,13.3,14.79,11.36,2.49-1.49-.34-6.85-1.63-10.5a4.77,4.77,0,0,0-1.57-1.28c-1.33-.59-2.3-.46-2.6.12a11.07,11.07,0,0,1,1.68,4.59C128.83,141.3,125.26,136.49,122,134.41Z" transform="translate(-4.5 -4.5)"/><path class="cls-20" d="M130.11,140c.24,1.71.87,3.87.32,5.09a29.68,29.68,0,0,0-7.63-8.8c-2.75-1.34-4,1.17-1.2,4.79a26.47,26.47,0,0,0,3.34,3.65,33.48,33.48,0,0,0,5.61,3.82,3.64,3.64,0,0,0,2.41.37C135.3,148.55,132.08,139.79,130.11,140Z" transform="translate(-4.5 -4.5)"/><path class="cls-17" d="M173.16,158.32a28.32,28.32,0,0,1,4.41-6c2.08-2.12,1.92-4.66,1-5.68a2.84,2.84,0,0,0-2.53-1.14c-1.5.21-2.7,1.55-3.49,2.73-1.71,2.54-2.14,5.51-2,9.75C171,159.52,172.14,159.56,173.16,158.32Z" transform="translate(-4.5 -4.5)"/><path class="cls-16" d="M178.58,146.67l-.21-.22a4.84,4.84,0,0,1-.26,1.3,9.45,9.45,0,0,1-4.08,4.78,16.11,16.11,0,0,0-3.48,2.81c0,.83,0,1.72,0,2.67.46,1.51,1.6,1.55,2.62.31a28.32,28.32,0,0,1,4.41-6C179.65,150.23,179.49,147.69,178.58,146.67Z" transform="translate(-4.5 -4.5)"/><path class="cls-21" d="M137.42,114.58c.65,2.35-.59,4.45-2.75,4.69a5.1,5.1,0,0,1-5.1-3.83c-.64-2.35.59-4.45,2.76-4.68A5.07,5.07,0,0,1,137.42,114.58Z" transform="translate(-4.5 -4.5)"/><path class="cls-22" d="M136.77,114.13a2.51,2.51,0,0,1-2,3.39,3.67,3.67,0,0,1-3.68-2.76,2.51,2.51,0,0,1,2-3.39A3.68,3.68,0,0,1,136.77,114.13Z" transform="translate(-4.5 -4.5)"/><path class="cls-4" d="M136.38,114.19a2.16,2.16,0,0,1-1.71,2.91,3.15,3.15,0,0,1-3.16-2.37,2.16,2.16,0,0,1,1.72-2.91A3.15,3.15,0,0,1,136.38,114.19Z" transform="translate(-4.5 -4.5)"/><path class="cls-23" d="M136.05,114.39a2.41,2.41,0,0,0-.51-1,2.87,2.87,0,0,1-1.86,2.64l-.34.07a2,2,0,0,0,1.43.42A1.6,1.6,0,0,0,136.05,114.39Z" transform="translate(-4.5 -4.5)"/><path class="cls-3" d="M132.9,114c-.26.44-1,.43-1.63,0s-1-1.15-.72-1.58,1-.42,1.64,0S133.16,113.57,132.9,114Z" transform="translate(-4.5 -4.5)"/><path class="cls-3" d="M135.21,115.39c-.15.26-.59.25-1,0s-.58-.69-.43-.94.59-.26,1,0S135.36,115.14,135.21,115.39Z" transform="translate(-4.5 -4.5)"/><path class="cls-21" d="M151.44,110.12c.54,2-.51,3.78-2.35,4a4.33,4.33,0,0,1-4.33-3.26c-.55-2,.5-3.78,2.34-4A4.32,4.32,0,0,1,151.44,110.12Z" transform="translate(-4.5 -4.5)"/><path class="cls-22" d="M150.88,109.74a2.13,2.13,0,0,1-1.69,2.88,3.11,3.11,0,0,1-3.13-2.35,2.13,2.13,0,0,1,1.69-2.88A3.14,3.14,0,0,1,150.88,109.74Z" transform="translate(-4.5 -4.5)"/><path class="cls-4" d="M150.55,109.79a1.83,1.83,0,0,1-1.45,2.47,2.69,2.69,0,0,1-2.69-2,1.84,1.84,0,0,1,1.45-2.48A2.7,2.7,0,0,1,150.55,109.79Z" transform="translate(-4.5 -4.5)"/><path class="cls-23" d="M150.27,110a2.07,2.07,0,0,0-.44-.81,2.45,2.45,0,0,1-1.58,2.25l-.29,0a1.77,1.77,0,0,0,1.22.37A1.38,1.38,0,0,0,150.27,110Z" transform="translate(-4.5 -4.5)"/><path class="cls-3" d="M147.59,109.63c-.22.37-.84.36-1.39,0s-.83-1-.61-1.34.84-.36,1.39,0S147.8,109.26,147.59,109.63Z" transform="translate(-4.5 -4.5)"/><path class="cls-3" d="M149.56,110.81c-.14.22-.51.21-.83,0s-.5-.59-.37-.8.5-.22.83,0S149.68,110.59,149.56,110.81Z" transform="translate(-4.5 -4.5)"/><path class="cls-7" d="M119.11,134.47c-1.75,1.69,4.42,7.21,7.61,8.73C124.73,139.76,120.6,133.29,119.11,134.47Z" transform="translate(-4.5 -4.5)"/><path class="cls-22" d="M125.62,182.77a12.35,12.35,0,0,1-2.62-1.48c-.39-.45-.83-.88-1.2-1.32a31.87,31.87,0,0,1-2-2.73,57.78,57.78,0,0,1-3.31-5.64c-2.07-3.89-3.31-8.12-5.08-12.13a.07.07,0,0,0-.14.05,94.89,94.89,0,0,0,4.51,12.77,39.89,39.89,0,0,0,3,5.7c.61,1,1.27,1.89,1.94,2.81,0,.06.09.13.14.2,1.1,3.64.19,5.91-4.63,7.52,1.41,1.2,2.33,2.25,0,6.85,3.07-5.59,5.72-7.1,9.26-6.19A5.74,5.74,0,0,1,125.62,182.77Z" transform="translate(-4.5 -4.5)"/><path class="cls-22" d="M174.52,163.5a19.34,19.34,0,0,1-9.57-3.12,7.25,7.25,0,0,0,1.62,4.26c.12-.42.56-1.22.69-1.73a4.49,4.49,0,0,1,2.53,5.05C171.4,166.52,172.84,164.92,174.52,163.5Z" transform="translate(-4.5 -4.5)"/><path class="cls-22" d="M124.39,123.94c-6.32-5.24-14.25-7.37-16.82-6.68-1.9.51-2.11,1.83-1.8,3.4.83-1.68,2.42-5,18.56,3.38C124.39,124.07,124.44,124,124.39,123.94Z" transform="translate(-4.5 -4.5)"/><path class="cls-22" d="M30.06,96.27c-1.54-3-9.79-4.52-7.87-.87C24.85,93.89,28.07,95.44,30.06,96.27Z" transform="translate(-4.5 -4.5)"/><path class="cls-22" d="M58.62,111.23c.25-.3.64-.8.91-1.12.09-2.1-10.78-5.73-17.88,4.26,7-5.07,11.81-5.7,12.36-4.76-.28,1.75,1.85,2.75,5.42,3.65,4.77,1.21,11.95,2,16.15-1.05C70.32,112.86,63.34,114,58.62,111.23Z" transform="translate(-4.5 -4.5)"/><path class="cls-22" d="M72,113.29a20,20,0,0,0,5.13-1.5c-.2-7,13.32-6.32,23.05-2.38C86.38,101.31,76.88,104.37,72,113.29Z" transform="translate(-4.5 -4.5)"/><path class="cls-22" d="M91.48,106.94c-9.12-5.71-14.58,3.54-21.41,7,2.21.09,5.35-.54,6.82.74,2.5,2.16,1.17,4.92-1.3,6.29.77-.26,2.18,0,3-.22,1.34,12,11.94,20.86,22.37,25.14C93.08,140.33,72,108.1,91.48,106.94Z" transform="translate(-4.5 -4.5)"/><path class="cls-22" d="M126.73,153c-5.45-4.7-10.19-9.7-13.36-16.23C114.51,144.12,120.26,149.88,126.73,153Z" transform="translate(-4.5 -4.5)"/><path class="cls-22" d="M117.82,153.22c-3.22-5-6.53-9.72-9.59-14.78C109,144.31,113.18,150.56,117.82,153.22Z" transform="translate(-4.5 -4.5)"/><path class="cls-22" d="M160.24,119c-3,1-5.77,2.94-8.46,4.63s-5.42,3.59-8.17,5.32A19,19,0,0,1,126,130.63c-.11,0-.21.11-.11.18a14.66,14.66,0,0,0,8.39,2.65,16.83,16.83,0,0,0,8.69-2.22,86,86,0,0,0,8.64-5.89c2.88-2.11,5.93-3.9,8.87-5.91C160.78,119.26,160.52,118.88,160.24,119Z" transform="translate(-4.5 -4.5)"/><path class="cls-22" d="M125.56,106.5a4.09,4.09,0,0,0-3.45,1.26c-.85.75-1.9,2-1.44,3.25a.48.48,0,0,0,.82.12,5.7,5.7,0,0,0,.58-1.19,4.35,4.35,0,0,1,1.22-1.48c.75-.64,1.62-1.12,2.31-1.83A.08.08,0,0,0,125.56,106.5Z" transform="translate(-4.5 -4.5)"/><path class="cls-22" d="M28,112.77a6.9,6.9,0,0,1-2.81-1.2c-.78-.58-1.41-1.36-2.21-1.89-1.08-.73-2.34.8-1.27,1.6,1.74,1.3,4.2,1.54,6.29,1.56C28,112.84,28,112.77,28,112.77Z" transform="translate(-4.5 -4.5)"/><path class="cls-22" d="M29.37,123.63a2.61,2.61,0,0,1-1.14.1c-.33,0-.58-.22-.89-.29a3.13,3.13,0,0,0-1.94,0,.88.88,0,0,0,.2,1.68c1.34.27,2.76-.71,3.84-1.39C29.51,123.7,29.44,123.61,29.37,123.63Z" transform="translate(-4.5 -4.5)"/><path class="cls-22" d="M118.18,75.15a1.24,1.24,0,0,0-1.27-.75,1.2,1.2,0,0,0-.81.46,1.19,1.19,0,0,0-.17,1.2c.49,1-.51,2-1.17,2.63a27,27,0,0,1-3,2.55c-.06.05,0,.17.08.12C113.74,80.35,119.52,78.18,118.18,75.15Z" transform="translate(-4.5 -4.5)"/><path class="cls-22" d="M123.75,88c-.81-.13-1.41.54-1.88,1.11a3.22,3.22,0,0,0-.68,1.81.13.13,0,0,0,.21.13,5.74,5.74,0,0,1,1.32-.8c.54-.26,1.24-.3,1.59-.82A.9.9,0,0,0,123.75,88Z" transform="translate(-4.5 -4.5)"/><path class="cls-22" d="M107.25,97.48a29.31,29.31,0,0,0-7.8-1.8c-2.45-.25-5.36-.62-7.59.6a.21.21,0,0,0,0,.39c2.19,1.06,4.81.6,7.16.56C101.76,97.19,107.48,97.58,107.25,97.48Z" transform="translate(-4.5 -4.5)"/><path class="cls-22" d="M144,154.86c-.24.31-.33.68-.56,1a2.7,2.7,0,0,1-1.25.63,9.32,9.32,0,0,1-3,.45c-2.79.08-6.4-.23-8.86-1.64,0,0,0,0,0,0a18.36,18.36,0,0,0,2.13,1.37,11.13,11.13,0,0,0,2.37.77c1.57.32,3.19.4,4.77.56a11.45,11.45,0,0,0,4,0c1.16-.3,2.63-1.2,2.39-2.6A1.11,1.11,0,0,0,144,154.86Z" transform="translate(-4.5 -4.5)"/><path class="cls-22" d="M137.75,198.92a17.4,17.4,0,0,0-2.68-1.6c-.7-.42-1.39-.85-2.08-1.28-.1-.06-.24.05-.16.15a7.24,7.24,0,0,0,1.09.9c.69.55,1.2,1.21,1.84,1.81a5.88,5.88,0,0,1,1.31,1.85c.12.27-.25.71,0,1.07.54.81,1.71.17,1.86-.62A2.52,2.52,0,0,0,137.75,198.92Z" transform="translate(-4.5 -4.5)"/><path class="cls-22" d="M111.72,198.92c-1.36,1-7.8,4-5.29,6.3a.73.73,0,0,0,1-.13c.3-.45.38-1,.65-1.45a4.87,4.87,0,0,1,1.32-1.47,12.3,12.3,0,0,0,2.92-2.6A.46.46,0,0,0,111.72,198.92Z" transform="translate(-4.5 -4.5)"/><path class="cls-22" d="M99.68,192.55c-1.7.18-4.33.26-4.69,2.37,0,.18.18.38.35.28,1.48-.82,3.1-.85,4.66-1.37C100.73,193.58,100.4,192.48,99.68,192.55Z" transform="translate(-4.5 -4.5)"/><path class="cls-22" d="M164.11,172.65c-1.19.48-2.43.75-3.64,1.16a2,2,0,0,0-1.46,1.37c-.21.74,1.89.38,2.14.29a18.57,18.57,0,0,0,2-.91C165,173.66,165.48,172.09,164.11,172.65Z" transform="translate(-4.5 -4.5)"/><path class="cls-22" d="M187.47,150.52c-1.37.93-2,2.39-3.09,3.6-.09.11.06.25.17.17.92-.59,1.87-1.11,2.78-1.73.53-.36,1.09-.69,1.63-1l.81-.48a.21.21,0,0,0,.28-.16C190.26,149.3,188.16,150.05,187.47,150.52Z" transform="translate(-4.5 -4.5)"/><path class="cls-22" d="M192,164a8.67,8.67,0,0,0-3.15.47,20.25,20.25,0,0,0-4.16,1.81,28.59,28.59,0,0,0,4.87-.62c.69-.08,2.7-.6,2.94.35a.35.35,0,0,0,.37.22,1,1,0,0,0,.86-1.14C193.71,164.32,192.57,164.07,192,164Z" transform="translate(-4.5 -4.5)"/><path class="cls-22" d="M176.16,146.33a2.17,2.17,0,0,0-1.8,1,8,8,0,0,0-.67.87c-.23.37-1.85,2.61-1.89,4.38,0,.27,1.54-1.84,1.78-2.29a7.42,7.42,0,0,1,1.26-1.47,3,3,0,0,1,1.49-1c.34-.09.87-.07,1-.52C177.42,146.65,176.65,146.35,176.16,146.33Z" transform="translate(-4.5 -4.5)"/><path class="cls-22" d="M145.71,177.56a3.15,3.15,0,0,0-2.45-.14,8.8,8.8,0,0,0-2.25,1,9.32,9.32,0,0,0-1.89,1.14.29.29,0,0,0,.21.51,6.07,6.07,0,0,0,1.56-.4,11,11,0,0,1,2.32-.41,18.34,18.34,0,0,1,2,0c.22,0,.86,0,1-.26A1.12,1.12,0,0,0,145.71,177.56Z" transform="translate(-4.5 -4.5)"/><path class="cls-4" d="M63.8,130.79l-4.71,23a3.22,3.22,0,0,0,2.17,3.71,3.07,3.07,0,0,0,3.86-1.31L75.1,135Z" transform="translate(-4.5 -4.5)"/><path class="cls-13" d="M63.45,155.15l9-19.08-7.22-2.67L61,154.23a1.18,1.18,0,0,0,.91,1.37A1.23,1.23,0,0,0,63.45,155.15Z" transform="translate(-4.5 -4.5)"/><path class="cls-4" d="M68.66,135.7l2.57,1-8.55,18.09c-.06.07-.25,0-.36,0Z" transform="translate(-4.5 -4.5)"/><path class="cls-4" d="M78.25,133.23a7.89,7.89,0,0,1-10.27,5,8.55,8.55,0,0,1-5.06-10.66,7.88,7.88,0,0,1,10.27-5A8.55,8.55,0,0,1,78.25,133.23Z" transform="translate(-4.5 -4.5)"/><path class="cls-14" d="M76.45,132.56a6,6,0,0,1-7.86,3.81,6.53,6.53,0,0,1-3.87-8.15,6,6,0,0,1,7.85-3.81A6.54,6.54,0,0,1,76.45,132.56Z" transform="translate(-4.5 -4.5)"/><path class="cls-15" d="M75.91,127.27a5.79,5.79,0,0,1-.11,3.27A5.54,5.54,0,0,1,68.65,134a6,6,0,0,1-3.79-6.14c0,.12-.1.23-.14.35a6.53,6.53,0,0,0,3.87,8.15,6,6,0,0,0,7.86-3.81A6.53,6.53,0,0,0,75.91,127.27Z" transform="translate(-4.5 -4.5)"/><path class="cls-3" d="M72.65,126.47c.37,1.17-.6,2.52-2.17,3s-3.14-.05-3.51-1.23.6-2.52,2.17-3S72.28,125.29,72.65,126.47Z" transform="translate(-4.5 -4.5)"/><text class="cls-24" transform="translate(90.6 21.16) rotate(-8.16)">U</text><text class="cls-24" transform="matrix(1, -0.06, 0.06, 1, 98.36, 20.06)">P</text><text class="cls-24" transform="translate(105.44 19.6) rotate(1)">S</text><text class="cls-24" transform="translate(113.19 19.74) rotate(5.55)">T</text><text class="cls-24" transform="translate(120.35 20.42) rotate(10.05)">A</text><text class="cls-24" transform="translate(128 21.78) rotate(14.62)">T</text><text class="cls-24" transform="matrix(0.95, 0.32, -0.32, 0.95, 134.97, 23.61)">E</text><text class="cls-24" transform="matrix(0.93, 0.37, -0.37, 0.93, 141.07, 25.73)"> </text><text class="cls-24" transform="translate(143.91 26.78) rotate(25.08)">S</text><text class="cls-24" transform="translate(150.92 30.13) rotate(28.53)">.</text><text class="cls-24" transform="translate(153.95 31.73) rotate(31.6)">c</text><text class="cls-24" transform="matrix(0.82, 0.57, -0.57, 0.82, 159.47, 35.18)">.</text></g></g></svg>