<svg xmlns="http://www.w3.org/2000/svg" xmlns:xlink="http://www.w3.org/1999/xlink" viewBox="0 0 262 262"><defs><style>.cls-1{fill:none;}.cls-2{fill:#e0dbdd;}.cls-3{fill:#ff6470;}.cls-4{clip-path:url(#clip-path);}.cls-5{fill:#beb3b8;}.cls-6{clip-path:url(#clip-path-2);}.cls-7{fill:#f0bbbb;}.cls-8{fill:#c9c0c4;}.cls-14,.cls-9{fill:#fff;}.cls-10{clip-path:url(#clip-path-3);}.cls-11{fill:#d9d2d5;}.cls-12{fill:#231f20;}.cls-13{fill:#e38383;}.cls-14{opacity:0.2;}</style><clipPath id="clip-path"><circle class="cls-1" cx="131" cy="131" r="102.28"/></clipPath><clipPath id="clip-path-2"><path class="cls-2" d="M122.73,107.62c-5-10.47-11.68-22.54-20.39-31.06C98,72.33,86,63.18,79.41,64.36c-6.75,1.21,2.8,16.6,4.9,20.74A115.09,115.09,0,0,0,102,111.3c2.94,3.21,5.74,9,10.06,6.1C114.74,115.62,119.61,110.4,122.73,107.62Z"/></clipPath><clipPath id="clip-path-3"><path class="cls-2" d="M137.62,107.62c5-10.47,11.68-22.54,20.39-31.06,4.33-4.23,16.38-13.38,22.94-12.2,6.74,1.21-2.8,16.6-4.9,20.74a115.75,115.75,0,0,1-17.68,26.2c-3,3.21-5.75,9-10.07,6.1C145.61,115.62,140.74,110.4,137.62,107.62Z"/></clipPath></defs><g id="objects"><circle class="cls-3" cx="131" cy="131" r="102.28"/><circle class="cls-3" cx="131" cy="131" r="102.28"/><g class="cls-4"><path class="cls-5" d="M189.25,207.48c-1-7.08-2.05-13.57-5-20.37-3.22-7.47-9.46-22.07-17-25.46-5.3,3.12-11.77,3.64-17.66,5.4-5.35,1.61-14.89,3-19.4,7.55-4.51-4.55-14.06-5.94-19.41-7.55-5.88-1.76-12.35-2.28-17.66-5.4-7.56,3.39-13.8,18-17,25.46-2.93,6.8-4,13.29-5,20.37-.69,4.83-3.35,12.86.77,16.74,3.79,3.56,9,11.34,13.81,11.9,6.59.77,8.88,9.44,15.51,9.8,7.74.42,21.12,2.24,28.58,1.63,7.47.61,20-1.21,27.77-1.63,6.63-.36,15.46-4.13,22.05-4.9,4.76-.56,8.46-7.06,12.24-10.62C196,226.53,189.94,212.31,189.25,207.48Z"/><path class="cls-2" d="M122.73,107.62c-5-10.47-11.68-22.54-20.39-31.06C98,72.33,86,63.18,79.41,64.36c-6.75,1.21,2.8,16.6,4.9,20.74A115.09,115.09,0,0,0,102,111.3c2.94,3.21,5.74,9,10.06,6.1C114.74,115.62,119.61,110.4,122.73,107.62Z"/><g class="cls-6"><path class="cls-7" d="M73.84,71.18c13,4.24,24.34,16.38,29.89,28.52,2.22,4.84,3.85,9.68,3.94,15,0,2.74-.14,5.89-2,8.06-5.07,5.75-10.27-3.68-13.37-7.53-7-8.73-11.49-18.78-16.21-28.81C74.13,82.33,71.15,75.6,73.84,71.18Z"/></g><path class="cls-8" d="M149.35,173.6c-.53-3-2.34-5.73-4-8.22-2.48-3.7-9.08-15.89-14.53-13.25a3.84,3.84,0,0,0-.62.39,4.44,4.44,0,0,0-.63-.39c-5.45-2.64-12.05,9.55-14.53,13.25-1.67,2.49-3.48,5.2-4,8.22-.25,1.41.14,2.87-.58,3.66.9,3.21,6.28,5.82,9.24,6.49a58.71,58.71,0,0,0,10.52,1.53,58.73,58.73,0,0,0,10.51-1.53c3-.67,8.34-3.28,9.24-6.49C149.21,176.47,149.6,175,149.35,173.6Z"/><path class="cls-9" d="M124.6,163.49c-.54,2.79-1.24,5.58-1.77,8.38-.41,2.16-1,4.79-.08,6.85.51,1.12.82,1.38,2,1.47.85.07,1.7.08,2.54.16s1.63.35,2.21-.23c1-1,.88-3.14,1-4.38.28-3.36.16-6.74.36-10.1.08-1.39.09-2.7-1.55-3.17C127.94,162.07,125.55,162.14,124.6,163.49Z"/><path class="cls-9" d="M130.31,163c0,1.8.25,3.56.27,5.36a29.14,29.14,0,0,0,.28,4.67c.2,1.17.37,2.33.56,3.5a4.36,4.36,0,0,0,.61,2.14c.78.86,2.84.52,3.81.25s1.55-.56,1.77-1.45a10.27,10.27,0,0,0-.07-3.41,43.42,43.42,0,0,0-.7-4.57,42.87,42.87,0,0,0-1.06-4.48,4.26,4.26,0,0,0-1-2A4.43,4.43,0,0,0,130.31,163Z"/><path class="cls-2" d="M137.62,107.62c5-10.47,11.68-22.54,20.39-31.06,4.33-4.23,16.38-13.38,22.94-12.2,6.74,1.21-2.8,16.6-4.9,20.74a115.75,115.75,0,0,1-17.68,26.2c-3,3.21-5.75,9-10.07,6.1C145.61,115.62,140.74,110.4,137.62,107.62Z"/><g class="cls-10"><path class="cls-7" d="M186.51,71.18c-13,4.24-24.34,16.38-29.89,28.52-2.22,4.84-3.85,9.68-3.94,15,0,2.74.14,5.89,2,8.06,5.07,5.75,10.28-3.68,13.37-7.53,7-8.73,11.49-18.78,16.22-28.81C186.22,82.33,189.2,75.6,186.51,71.18Z"/></g><path class="cls-11" d="M171.36,152c-2.2-6.46-7.59-10.71-11.81-16.08-4.57-5.8-2.82-14-6.32-20.37-2.42-4.4-5.73-8.93-10.38-11a30,30,0,0,0-10.91-2.24.15.15,0,0,1,0-.07l-1.75,0-1.75,0a.64.64,0,0,1,0,.07,30,30,0,0,0-10.91,2.24c-4.65,2-8,6.56-10.38,11-3.5,6.36-1.31,14.76-5.87,20.57-4.23,5.36-9.42,8.84-11.63,15.3-2,5.79-2.27,13.41,1.36,18.4a24.1,24.1,0,0,0,16.88,9.88c11.16,1.22,19.15-6.34,22.32-16,3.16,9.64,11.15,17.2,22.31,16,6.59-.71,12.43-4.6,16.55-10.27A19.28,19.28,0,0,0,171.36,152Z"/><circle class="cls-12" cx="113.81" cy="133.97" r="5.01"/><circle class="cls-9" cx="113.81" cy="133.97" r="1.57"/><circle class="cls-12" cx="145.9" cy="133.97" r="5.01"/><circle class="cls-9" cx="145.9" cy="133.97" r="1.57"/><path class="cls-13" d="M130.29,158.9c0-1.55-1.75-2.76-2.89-3.53-.76-.51-1.62-.81-2.35-1.37-.42-.33-1.41-1.28-1.14-1.87.41-.92,3-.64,3.8-.64,1.63,0,3.3-.09,4.91,0,1,0,4.87-.41,4.11,1.54-.66,1.69-3.3,2.32-4.63,3.31a4.34,4.34,0,0,0-1.42,1.59C130.5,158.31,130.54,159,130.29,158.9Z"/><path class="cls-14" d="M132.22,102.34l-.28,0a.15.15,0,0,1,0-.07l-1.75,0-1.75,0a.64.64,0,0,1,0,.07,34.69,34.69,0,0,0-7.74,1.13c-4.75-9.39-10.76-19.48-18.33-26.89C98,72.33,86,63.18,79.41,64.36c-3.21.57-2.73,4.36-1.13,8.61.66,2.18,5.65,11.23,7.55,15.27,4.73,10,16.31,23.66,20.67,28.56-2.06,5-1.45,14.62-5.25,19.29-4.32,5.29-9.42,8.84-11.63,15.3a24.82,24.82,0,0,0-.85,13.49c-5.58,5.71-10.1,16.25-12.68,22.23-2.93,6.8-4,13.29-5,20.37-.69,4.83-3.35,12.86.77,16.74,3.79,3.56,9,11.34,13.81,11.9,6.59.77,8.88,9.44,15.51,9.8,7.74.42,21.12,2.24,28.58,1.63.77.06,1.6.09,2.45.11Z"/></g></g></svg>