<?xml version="1.0" encoding="utf-8"?>
<!-- Generator: Adobe Illustrator 26.0.1, SVG Export Plug-In . SVG Version: 6.00 Build 0)  -->
<svg version="1.1" id="Layer_1" xmlns="http://www.w3.org/2000/svg" xmlns:xlink="http://www.w3.org/1999/xlink" x="0px" y="0px"
	 viewBox="0 0 262 262" style="enable-background:new 0 0 262 262;" xml:space="preserve">
<style type="text/css">
	.st0{fill:#FFCA3C;}
	.st1{clip-path:url(#SVGID_00000004525826215843151820000001213345412726907038_);}
	.st2{fill:#BA9B89;}
	.st3{opacity:0.5;fill:#BA9B89;enable-background:new    ;}
	.st4{fill:#8C593B;}
	.st5{fill:#E38383;}
	.st6{fill:#231F20;}
	.st7{fill:#FFFFFF;}
	.st8{fill:#E1D9CB;}
	.st9{opacity:0.2;fill:#FFFFFF;enable-background:new    ;}
</style>
<circle class="st0" cx="131" cy="136.4" r="102.3"/>
<g>
	<defs>
		<circle id="SVGID_1_" cx="131" cy="136.4" r="102.3"/>
	</defs>
	<clipPath id="SVGID_00000162337209652053033640000003761949418302577032_">
		<use xlink:href="#SVGID_1_"  style="overflow:visible;"/>
	</clipPath>
	<g style="clip-path:url(#SVGID_00000162337209652053033640000003761949418302577032_);">
		<path class="st2" d="M178.6,223.2c0-13.3-0.1-22.4-1.4-35.6c-1.4-14.5-3.1-35.5-9-49.1c-14.7-10.6-34.6,1.6-37.3,13
			c-0.2,0.9-0.4,1.9-0.6,3c-0.3-1-0.6-2-0.9-3c-2.6-11.4-22.6-23.6-37.3-13c-5.9,13.6-7.6,34.6-9,49.1c-1.3,13.2-1.4,22.3-1.3,35.6
			c0,4.5-0.8,10,0.5,14.1c1,3.4,0.2,2.8,4,3.9c4.6,1.3,9.7,2.7,14.5,3.7c5.8,1.2,11.3,0.6,17.1,0.4c1.1-0.1,10.1,0,17.4-0.2
			c1.6,1,5.6,0.1,7.4,0.2c5.7,0.2,11.3,0.9,17.1-0.4c4.7-1,9.8-2.4,14.5-3.7c3.8-1.1,3-0.5,4-3.9
			C179.4,233.2,178.6,227.7,178.6,223.2z"/>
		<path class="st3" d="M178.6,223.2c0-13.3-0.1-22.4-1.4-35.6c-1.4-14.5-3.1-35.5-9-49.1c-14.7-10.6-34.6,1.6-37.3,13
			c-0.2,0.9-0.4,1.9-0.6,3c-0.3-1-0.6-2-0.9-3c-2.6-11.4-22.6-23.6-37.3-13c-5.9,13.6-7.6,34.6-9,49.1c-1.3,13.2-1.4,22.3-1.3,35.6
			c0,4.5-0.8,10,0.5,14.1c1,3.4,0.2,2.8,4,3.9c4.6,1.3,9.7,2.7,14.5,3.7c5.8,1.2,11.3,0.6,17.1,0.4c1.1-0.1,10.1,0,17.4-0.2
			c1.6,1,5.6,0.1,7.4,0.2c5.7,0.2,11.3,0.9,17.1-0.4c4.7-1,9.8-2.4,14.5-3.7c3.8-1.1,3-0.5,4-3.9
			C179.4,233.2,178.6,227.7,178.6,223.2z"/>
		<path class="st4" d="M113.7,93.7c-0.5-2.3-2.8-4.3-4.5-5.8c-2-1.8-4.1-3.5-6.2-5.2c-1.7-1.4-3.3-2.9-4.9-4.3
			c-1.3-1.1-2.7-1.9-4-2.9c-2.4-2-5.8-3.9-9.1-3.9c-2,0-2.6,2.7-2.9,4.4c-0.5,3.3-0.4,6.7,0.3,10c0.6,3.8,0.6,7.6,1.3,11.3
			c0.4,2,0.7,4.5,2,6.1c1.7-1.1,3.6-2.1,5.5-2.9c2.7-1.2,5.4-2.3,8.3-3.1c2.7-0.7,5.3-1.5,7.9-2.5C109.5,93.9,111.3,93.2,113.7,93.7
			z"/>
		<path class="st5" d="M88.3,99.8c-1.1-6-4.4-13.8-4.1-19.9c0.1-1.7,0.4-3.4,2.2-3.6s3.1,0.8,4.4,1.9c1.8,1.6,3.8,3.1,5.6,4.7
			c1.7,1.6,3.3,3.3,4.7,5.1c0.6,0.8,2.1,2.2,2.1,3.2c-2.8,0.9-5.4,2.2-7.9,3.7c-1.7,0.9-1.7,2.3-3.3,3.2
			C91.2,98.5,89.5,100.1,88.3,99.8z"/>
		<path class="st4" d="M149.8,93.7c0.5-2.3,2.8-4.3,4.5-5.8c2-1.8,4.1-3.5,6.2-5.2l4.9-4.3c1.2-1.1,2.7-1.9,4-2.9
			c2.4-2,5.8-3.9,9.1-3.9c2,0,2.6,2.7,2.9,4.4c0.5,3.3,0.4,6.7-0.3,10c-0.6,3.8-0.6,7.6-1.3,11.3c-0.4,2-0.7,4.5-2,6.1
			c-1.7-1.1-3.6-2.1-5.5-2.9c-2.7-1.2-5.4-2.3-8.3-3.1c-2.7-0.7-5.3-1.5-7.9-2.5C154,93.9,152.1,93.2,149.8,93.7z"/>
		<path class="st5" d="M175.2,99.8c1.1-6,4.4-13.8,4.1-19.9c-0.1-1.7-0.4-3.4-2.2-3.6s-3.1,0.8-4.4,1.9c-1.8,1.6-3.8,3.1-5.6,4.7
			c-1.7,1.6-3.3,3.3-4.7,5.1c-0.6,0.8-2.1,2.2-2.1,3.2c2.8,0.9,5.4,2.2,7.9,3.7c1.7,0.9,1.7,2.3,3.3,3.2
			C172.3,98.5,173.9,100.1,175.2,99.8z"/>
		<path class="st2" d="M196.7,122.4c0.2-3.3-6.3-5.5-7.8-8.3c2.4-1.6,5.9-0.5,8.1-2.3c-2.2-3.9-7.5-7.2-11.4-9.6
			c-8.7-5.3-33.8-16.6-54.7-17c-19.9-0.3-46,11.7-54.7,17c-3.9,2.4-9.2,5.7-11.4,9.6c2.2,1.8,5.7,0.8,8.1,2.3
			c-1.4,2.8-7.9,5-7.8,8.3c4.1,1.5,8.4,0.3,5,5c-2.4,3.2-4,4.7,0.5,6.3c4.3,1.5,3.7,1.3,3.7,5.6c0,2.8,0.2,3.7,2.5,5.4
			c3.9,2.9,8.1,5.4,12.5,7.6c2.4,1.2,5.1,2.3,7.2,4.1c4.4,3.9,9.4,10.4,14.8,13.9c5.9,3.8,12.7,5.8,19.6,6
			c6.2,0.1,12.3-1.7,17.5-5.2c5.4-3.4,12.6-10.8,17-14.7c2-1.8,4.7-2.9,7.2-4.1c4.4-2.2,8.5-4.7,12.5-7.6c2.3-1.7,2.5-2.6,2.5-5.4
			c-0.1-4.2-0.7-4,3.7-5.6c4.5-1.6,2.9-3,0.5-6.3C188.3,122.6,192.7,123.8,196.7,122.4z"/>
		<path class="st4" d="M141,122.3c3.9-2.2,6.7-3.6,11.2-3.8c2.6-0.2,5.6,0,8-1c3.2-1.3,2.5-2.9-0.7-3.1c-2.9-0.1-5.6,1.6-8.2,2.6
			c2-2.2,5.3-6.4,5.2-9.4c-4.6-0.2-8.3,4.5-11.2,7.6c0-2.7,1.6-7-0.1-9.4C140.4,108.1,141,117.7,141,122.3z"/>
		<path class="st4" d="M121,122.3c-3.9-2.2-6.7-3.6-11.2-3.8c-2.7-0.2-5.6,0-8-1c-3.2-1.3-2.5-2.9,0.7-3.1c2.9-0.1,5.6,1.6,8.2,2.6
			c-2-2.2-5.3-6.4-5.2-9.4c4.6-0.2,8.3,4.5,11.2,7.6c0-2.7-1.6-7,0.1-9.4C121.6,108.1,121,117.7,121,122.3z"/>
		<circle class="st6" cx="114.6" cy="131.4" r="5.9"/>
		<circle class="st7" cx="114.6" cy="131.4" r="1.9"/>
		<circle class="st6" cx="147" cy="131.4" r="5.9"/>
		<circle class="st7" cx="147" cy="131.4" r="1.9"/>
		<path class="st8" d="M130.7,153.3c-1.1-2.4-5.7-4.8-8-5.9c-2.6-1.3-5.5-1.9-8.4-1.7c-4.4,0.2-9.6,3.2-11,7.6
			c-1.5,4.7-0.7,9.9,3.6,13.1c5.1,3.8,12,3.4,16.9,1.7c3-1,6.1-3.3,7.3-6.3C132.1,159.2,132.8,154.2,130.7,153.3z"/>
		<path class="st8" d="M131,153.3c1.1-2.4,5.7-4.8,8-5.9c2.6-1.3,5.5-1.9,8.4-1.7c4.4,0.2,9.6,3.2,11,7.6c1.5,4.7,0.7,9.9-3.6,13.1
			c-5.1,3.8-12,3.4-16.9,1.7c-2.9-1-6.1-3.3-7.3-6.3C129.5,159.2,128.9,154.2,131,153.3z"/>
		<path class="st5" d="M131.2,159.7c-0.5-4.1-2.7-2.3-5.3-3.1c-2.8-0.8-2.4-4.1,0.4-4.8c2.5-0.6,5.6-0.3,8.2-0.2
			c2.3,0,6.3,2.5,2.5,4.7C134.9,157.6,130.9,156.2,131.2,159.7z"/>
		<path class="st9" d="M131.3,85.2H131c-7.2,0.1-14.4,1.1-21.3,3.1l-0.5-0.5c-2-1.8-4.1-3.5-6.2-5.2c-1.7-1.4-3.3-2.9-4.9-4.3
			c-1.3-1.1-2.7-1.9-4-2.9c-2.4-2-5.8-3.9-9.1-3.9c-2,0-2.6,2.7-2.9,4.4c-0.5,3.3-0.4,6.7,0.3,10c0.6,3.8,0.6,7.6,1.3,11.3
			c0.1,0.3,0.1,0.6,0.2,0.9c-3.2,1.5-5.8,3-7.7,4.1c-3.9,2.4-9.2,5.7-11.4,9.6c2.2,1.8,5.7,0.8,8.1,2.3c-1.4,2.8-7.9,5-7.8,8.3
			c4.1,1.5,8.4,0.3,5,5c-2.4,3.2-4,4.7,0.5,6.3c4.3,1.5,3.7,1.3,3.7,5.6c0,2.8,0.2,3.7,2.5,5.4c3.6,2.6,7.3,4.9,11.2,6.9
			c-2.8,12-3.9,25.7-4.9,36.1c-1.3,13.2-1.4,22.3-1.3,35.6c0,4.5-0.8,10,0.5,14.1c1,3.4,0.2,2.8,4,3.9c4.6,1.3,9.7,2.7,14.5,3.7
			c5.8,1.2,11.3,0.6,17.1,0.4c0.9,0,7.2,0,13.5-0.1L131.3,85.2z"/>
	</g>
</g>
</svg>
