<svg xmlns="http://www.w3.org/2000/svg" xmlns:xlink="http://www.w3.org/1999/xlink" viewBox="0 0 262 262"><defs><style>.cls-1{fill:none;}.cls-2{fill:#4dcdff;}.cls-3{clip-path:url(#clip-path);}.cls-4{fill:#818689;}.cls-5{fill:#e1d9cb;}.cls-6{fill:#231f20;}.cls-7,.cls-8{fill:#fff;}.cls-8{opacity:0.2;}</style><clipPath id="clip-path"><circle class="cls-1" cx="131" cy="131" r="102.28"/></clipPath></defs><g id="objects"><circle class="cls-2" cx="131" cy="131" r="102.28"/><g class="cls-3"><path class="cls-4" d="M177.23,61.35A26.4,26.4,0,0,0,161,67.71s-3.44-3.24-12.43-6.94a46.41,46.41,0,0,0-17.72-3.4h-.63a46.41,46.41,0,0,0-17.72,3.4c-9,3.7-12.43,6.94-12.43,6.94a26.36,26.36,0,0,0-16.19-6.36c-9.83-.29-12.72.86-12.43,6.65s1.15,18.5,4.91,25.44,4.63,8.38,7.81,6.94,10.41-9.83,13-13.59a20.4,20.4,0,0,0,3.18-6.36s5.49,12.43,5.78,21.39,0,16.77-1.16,22.26S91.6,155.36,87.68,166c-5.63,15.28-9,44.16-7.52,65.34,1.67,24.8,5.65,47.08,10.41,61.58,5.39,16.44,7.51,21.39,9.25,23.42s19.66,3.47,25.73,2.31c1.81-.35,3.51-.67,5-1,1.52.38,3.21.7,5,1,6.07,1.16,24-.29,25.73-2.31s3.86-7,9.26-23.42c4.76-14.5,8.73-36.78,10.4-61.58,1.43-21.18-1.88-50.06-7.51-65.34-3.93-10.64-16.19-36.42-17.35-41.92s-1.45-13.3-1.16-22.26,5.79-21.39,5.79-21.39a20.11,20.11,0,0,0,3.18,6.36c2.6,3.76,9.83,12.14,13,13.59s4,0,7.8-6.94,4.63-19.66,4.92-25.44S187.06,61.06,177.23,61.35ZM134.45,266.61a66.74,66.74,0,0,1-3.87,18.85,66,66,0,0,1-3.87-18.85c-1.18-18.5-1-32.22,3.87-36C135.44,234.39,135.62,248.11,134.45,266.61Z"/><path class="cls-5" d="M114,129.07c-4.27,0-8.45-.22-12.69-.22-6.22,0-12.62-.62-16.25,5.26-4.84,7.83-5.23,20-4.33,28.8.53,5.24.13,10.76.88,16a8.9,8.9,0,0,0,8.07,7.9c5,.27,7.44-6.52,11.86-8,3.44-1.2,5.6,2.15,7.49,4.49,2.35,2.9,6.61,6.06,10.46,3.55s5.17-8,10.55-7.6c5.17.39,6.86,6.23,11.88,7.17,7.32,1.37,7.67-6.63,13.27-8.47,5.2-1.72,7.68,5.64,11.57,7.5,5.16,2.47,10.62.76,12.74-4.79,1.57-4.11,1.19-9.34,1.18-13.64,0-4.71-.32-9.29-.7-14-.5-6.05.53-12.3-3-17.58-4.68-7-14.59-7.44-22.21-6.69C147.71,129.37,118.75,129.06,114,129.07Z"/><path class="cls-5" d="M132.54,190.14c-6.18-.2-10.33,3.38-13.49,5.76-3.82,2.89-7.08,7.31-9.74,11.26-1.82,2.71-10.84,17.51-1.14,15.58,4.8-1,10.18-7.7,13-11.45,1.68,3.43,2.75,7,6.82,8.52,5,1.81,9.33-3.43,10.09-7.93,2.2,3.81,18.63,16.88,19.34,6.28.64-9.48-9.05-18.44-15.39-24.22A15.34,15.34,0,0,0,132.54,190.14Z"/><path class="cls-5" d="M110.85,79.31c-4.1,1.73-5,7.39-5,11.28,0,1.94.62,10.57,4,9.11,1.71-.74,2-4.52,1.91-6.06,1.42,1.34,2.95,4.63,5.48,4.32,2.36-.3,2.82-3.64,3-5.58,1.72,3,6.68,4.74,8.43.74,1.26-2.88.52-7.55-1.1-10.13C124.16,77.6,116.06,76.91,110.85,79.31Z"/><path class="cls-5" d="M150.31,79.31c4.09,1.73,5,7.39,5,11.28,0,1.94-.62,10.57-4,9.11-1.71-.74-2-4.52-1.9-6.06-1.43,1.34-3,4.63-5.49,4.32-2.36-.3-2.82-3.64-3-5.58-1.72,3-6.68,4.74-8.42.74-1.26-2.88-.53-7.55,1.09-10.13C137,77.6,145.09,76.91,150.31,79.31Z"/><path class="cls-6" d="M134.78,125.21c-4.67,0-13.83-.89-17.72,2.2-5.08,4,1.08,10.68,3.35,14.06s7.37,9.41,12.1,7.76c5.09-1.77,10.86-9.9,12.8-14.69C148.79,126,139,125,134.78,125.21Z"/><ellipse class="cls-7" cx="130.29" cy="130.15" rx="8.02" ry="2.39"/><circle class="cls-6" cx="121.18" cy="110.86" r="5.34"/><circle class="cls-7" cx="121.18" cy="110.86" r="1.68"/><circle class="cls-6" cx="139.97" cy="110.64" r="5.34"/><circle class="cls-7" cx="139.97" cy="110.64" r="1.68"/><path class="cls-8" d="M131,284.24l-.42,1.22a66,66,0,0,1-3.87-18.85c-1.18-18.5-1-32.22,3.87-36a4,4,0,0,1,.42.41V57.38h-.74a46.41,46.41,0,0,0-17.72,3.4c-9,3.7-12.43,6.94-12.43,6.94a26.36,26.36,0,0,0-16.19-6.36c-9.83-.29-12.72.86-12.43,6.65s1.15,18.5,4.91,25.44,4.63,8.38,7.81,6.94,10.41-9.83,13-13.59a20.4,20.4,0,0,0,3.18-6.36s5.49,12.43,5.78,21.39,0,16.77-1.16,22.26a37.69,37.69,0,0,1-1.61,4.8c-.69,0-1.37,0-2.06,0-6.22,0-12.62-.62-16.25,5.25-4.84,7.84-5.23,20-4.33,28.81.53,5.24.13,10.76.88,16A9.78,9.78,0,0,0,83.27,183c-2.79,15-4.11,33.55-3.11,48.32,1.67,24.8,5.65,47.08,10.41,61.58,5.39,16.44,7.51,21.39,9.25,23.42s19.66,3.47,25.73,2.31c1.81-.35,3.51-.67,5-1l.42.1Z"/></g></g></svg>