<svg xmlns="http://www.w3.org/2000/svg" xmlns:xlink="http://www.w3.org/1999/xlink" viewBox="0 0 262 262"><defs><style>.cls-1{fill:none;}.cls-2{fill:#bbd64a;}.cls-3{clip-path:url(#clip-path);}.cls-4{fill:#bc4029;}.cls-5{fill:#e9d8c9;}.cls-6{fill:#702e1e;}.cls-7{fill:#231f20;}.cls-8,.cls-9{fill:#fff;}.cls-9{opacity:0.2;}</style><clipPath id="clip-path"><circle class="cls-1" cx="131" cy="131" r="102.28"/></clipPath></defs><g id="objects"><circle class="cls-2" cx="131" cy="131" r="102.28"/><g class="cls-3"><path class="cls-4" d="M98.67,157.93c-.93,2.39.87,6.85.09,10a66.22,66.22,0,0,1-4.36,11.42c-3.37,7.25-8.24,13.7-11.42,21a53.43,53.43,0,0,0-4.52,21.29c0,3.78-.59,8.18.24,11.87,1.18,5.26,7.3,8,12,9.88,14.94,6.17,31.05,13.11,46.88,6-.84-2.33.5-5.17.67-7.65.43-6.22.32-12.72.28-18.93-.07-12.52.56-25.81,0-38.28-.32-7.22-2-14.38-8.72-19-4.69-3.23-9.54-3.87-14.72-5.73C111.12,158.47,107,156.64,98.67,157.93Z"/><path class="cls-4" d="M163.33,157.92c.93,2.39-.87,6.84-.09,10a66.11,66.11,0,0,0,4.36,11.41c3.37,7.25,8.24,13.71,11.42,21.05a53.51,53.51,0,0,1,4.52,21.3c0,3.77.59,8.17-.24,11.87-1.18,5.26-7.3,8-12,9.88-14.94,6.16-31,13.11-46.88,6,.84-2.33-.5-5.17-.67-7.66-.43-6.21-.32-12.71-.28-18.93.07-12.52-.56-25.8,0-38.27.32-7.23,2-14.38,8.72-19,4.69-3.23,9.54-3.87,14.72-5.72C150.88,158.45,155,156.63,163.33,157.92Z"/><path class="cls-5" d="M159.64,233.84c-.61-11.12-1-22.76-5.95-33-3.82-8-11.18-17.66-21.12-17.77a3.59,3.59,0,0,0-1.47-.18,3.39,3.39,0,0,0-1.77.2c-9.89.17-17.21,9.82-21,17.77-4.91,10.26-5.34,21.91-6,33-.47,8.66-2.86,26.27,6.28,31.41,4.84,2.73,12.36,3.38,17.74,2.61a18.44,18.44,0,0,0,4.64-1.25,18.12,18.12,0,0,0,4.6,1.24c5.38.76,12.9.11,17.74-2.61C162.5,260.12,160.11,242.5,159.64,233.84Z"/><path class="cls-6" d="M77.86,54.53s9.68.17,21,8.58S115.62,80,116.93,82.77a35.54,35.54,0,0,1,2,5.51s-13.49,2.18-19.59,6.1-13.2,13.2-13.2,13.2-4.53-5.47-8.31-17.37S74.52,59.47,77.86,54.53Z"/><path class="cls-5" d="M96.83,68.53C87.25,59,80.75,57.34,79.44,57.92S79,71.86,80.57,78.24a93.74,93.74,0,0,0,6.76,18.32,41.61,41.61,0,0,0,3.34,5.69,48.64,48.64,0,0,1,8.7-7.87C102.31,92.49,107,91,111,90,108.28,84.85,104,75.68,96.83,68.53Z"/><path class="cls-5" d="M82.08,111.2s3.76,4.65-2.07,13.22c-11.07,16.26-33.85,11-33.85,11l17.2,6.74s-1.53,2.18-7.19,5.34a36.18,36.18,0,0,1-6.53,3.15s7.62,2.18,12.19,2.18,7.84-.22,7.84-.22-4.14,4.14-5.44,6.53a21.26,21.26,0,0,0-1.74,3.92s22.85-5.88,42.23,3.27S127.35,186.4,128,189s1.74.22,1.74.22.87-35.91-5-52.24-14.15-35.48-21.11-36.13S82.08,111.2,82.08,111.2Z"/><circle class="cls-7" cx="101.63" cy="138.19" r="5.91"/><circle class="cls-8" cx="101.63" cy="138.19" r="1.86"/><ellipse class="cls-7" cx="130.98" cy="190.86" rx="6.31" ry="7.29"/><path class="cls-6" d="M184.14,54.52s-9.68.16-21,8.58S146.38,80,145.07,82.75a35.45,35.45,0,0,0-2,5.52s13.49,2.18,19.59,6.09,13.2,13.21,13.2,13.21,4.53-5.47,8.31-17.37S187.48,59.45,184.14,54.52Z"/><path class="cls-5" d="M165.17,68.52c9.58-9.58,16.08-11.2,17.39-10.62s.46,13.94-1.13,20.33a93.65,93.65,0,0,1-6.76,18.31,41,41,0,0,1-3.34,5.69,49.41,49.41,0,0,0-8.7-7.87C159.69,92.48,155,91,151,90,153.72,84.83,158,75.67,165.17,68.52Z"/><path class="cls-5" d="M179.92,111.18s-3.76,4.65,2.07,13.23c11.07,16.25,33.85,11,33.85,11l-17.2,6.75s1.53,2.18,7.19,5.33c4.87,2.72,6.53,3.16,6.53,3.16s-7.62,2.18-12.19,2.18-7.84-.22-7.84-.22,4.14,4.13,5.44,6.53a20.92,20.92,0,0,1,1.74,3.92s-22.85-5.88-42.23,3.26S134.65,186.39,134,189s-1.74.22-1.74.22-.87-35.92,5-52.24,14.15-35.48,21.11-36.14S179.92,111.18,179.92,111.18Z"/><circle class="cls-7" cx="160.37" cy="138.18" r="5.91"/><circle class="cls-8" cx="160.37" cy="138.18" r="1.86"/><path class="cls-4" d="M168.67,93.7c-14.26-12.79-61.14-12.73-75.34,0-15.13,13.57-19.87,37.48-19.87,37.48s13.35-11,24.61-9.48c13.1,1.81,19.56,6.3,23.26,23.94s6.46,45.54,6.46,45.54h6.42s2.76-27.92,6.46-45.55,10.16-22.13,23.26-23.93c11.26-1.56,24.61,9.48,24.61,9.48S183.8,107.27,168.67,93.7Z"/><ellipse class="cls-7" cx="131.02" cy="190.85" rx="6.31" ry="7.29"/><path class="cls-9" d="M130.17,84.15a105.45,105.45,0,0,0-12.31.81c-.27-.7-.57-1.44-.93-2.19-1.31-2.76-6.75-11.24-18.07-19.66s-21-8.58-21-8.58c-3.34,4.94-3.77,23.78,0,35.68a67.28,67.28,0,0,0,6.36,14.5A87.48,87.48,0,0,0,73.51,131c-11.67,8.06-27.35,4.49-27.35,4.49l17.2,6.74s-1.53,2.18-7.19,5.34a36.18,36.18,0,0,1-6.53,3.15s7.62,2.18,12.19,2.18,7.84-.22,7.84-.22-4.14,4.14-5.44,6.53a21.26,21.26,0,0,0-1.74,3.92s18.52-4.76,36.35,1a11.38,11.38,0,0,1-.08,3.88,66.22,66.22,0,0,1-4.36,11.42c-3.37,7.25-8.24,13.7-11.42,21a53.43,53.43,0,0,0-4.52,21.29c0,3.78-.59,8.18.24,11.87,1.18,5.26,7.3,8,12,9.88,3.64,1.5,7.35,3,11.1,4.43.17,7.2,1.58,14.4,6.89,17.38,4.84,2.73,12.36,3.38,17.74,2.61a18.79,18.79,0,0,0,3.79-.92Z"/></g></g></svg>