<svg xmlns="http://www.w3.org/2000/svg" xmlns:xlink="http://www.w3.org/1999/xlink" viewBox="0 0 262 262"><defs><style>.cls-1{fill:none;}.cls-2{fill:#8c8c8c;}.cls-3{fill:#ff6470;}.cls-4{clip-path:url(#clip-path);}.cls-5{fill:#666;}.cls-6{fill:#333;}.cls-7{clip-path:url(#clip-path-2);}.cls-8{fill:#b2b2b2;}.cls-9{fill:#231f20;}.cls-10,.cls-11{fill:#fff;}.cls-11{opacity:0.2;}</style><clipPath id="clip-path"><circle class="cls-1" cx="135.92" cy="131" r="102.28"/></clipPath><clipPath id="clip-path-2"><path class="cls-2" d="M173.48,139.21a318.16,318.16,0,0,0-8.87-35.78s-1.56-.94-7.34-1.34c-4.58-.32-17.2-1.15-23.12-1.06-4.39-.09-15,.74-19.59,1.06-5.77.4-7.34,1.34-7.34,1.34a320.64,320.64,0,0,0-8.87,35.78c-3.43,19.73-4.59,30.1,7.65,43.81,10.21,11.45,25,11.2,29.45,11.12,4.65-.08,18.81,2.44,30.39-11.12C177.77,169.05,176.91,158.94,173.48,139.21Z"/></clipPath></defs><g id="objects"><circle class="cls-3" cx="135.92" cy="131" r="102.28"/><g class="cls-4"><path class="cls-5" d="M95.48,127.51s-9.36-9.37-19.06-5.35-10.7,14.38-3,17.05,16.39,3.68,19.39,1.67S95.48,127.51,95.48,127.51Z"/><path class="cls-5" d="M176.35,127.51s9.37-9.37,19.07-5.35,10.7,14.38,3,17.05S182,142.89,179,140.88,176.35,127.51,176.35,127.51Z"/><path class="cls-5" d="M249.37,390.37c-4.9-5.79-19.62-4-19.62-4s9.81-14.27,14.72-28.09,8-45-2.23-53.51S211.92,315,211.92,315c-2,3-12.84,20.64-23.69,39.22,3.82-14.41,7.11-27.27,7.63-30.74,1.34-8.92-3.56-106.13-11.14-120C178,191.21,143.9,188.46,136.62,188v-.08l-.7,0-.7,0V188c-7.29.45-41.34,3.2-48.1,15.52-7.58,13.83-12.49,111-11.15,120,.52,3.47,3.81,16.33,7.64,30.74C72.76,335.65,61.94,318.05,59.92,315c0,0-20.07-18.73-30.32-10.25s-7.14,39.68-2.23,53.51,14.71,28.09,14.71,28.09-14.71-1.78-19.62,4-.89,13.38,2.23,13.83c2.48.35,50.64.42,72.48-.9h77.49c21.85,1.32,70,1.25,72.48.9C250.26,403.75,254.28,396.17,249.37,390.37Z"/><path class="cls-6" d="M230.64,258.38c-4.9-39.68-32.1-70.9-43.25-107.91s-7.95-49.09-21-75.36C156,54,137.49,54.19,133.42,54.52c-5.32-.05-18.73,1.84-28,20.59-13,26.27-9.81,38.35-21,75.36S46.1,218.7,41.19,258.38s6.24,90.08,11.15,108.8,11.59,32.11,18.73,33.45,10.7-8.47,10.7-8.47,1.34,9.81,8,9.81,8.91-9.37,8.91-9.37-.54,9.14,6.25,9.81,8.47-8.47,8.47-8.47,1.34,8.47,9.81,8,9.81-49.5,10.7-64.66-4.9-54-19.17-80.27c-7.08-13-14.72-34.78-6.69-46.82,7.32-11,24.62-14,27.66-14,2.55,0,20.56,2.84,28,14,8,12,.39,33.78-6.69,46.82-14.27,26.31-20.07,65.11-19.18,80.27s2.23,64.21,10.71,64.66,9.81-8,9.81-8,1.68,9.14,8.47,8.47,6.24-9.81,6.24-9.81S175.35,402,182,402s8-9.81,8-9.81,3.56,9.81,10.7,8.47,13.82-14.72,18.73-33.45S235.55,298.07,230.64,258.38Z"/><path class="cls-2" d="M173.48,139.21a318.16,318.16,0,0,0-8.87-35.78s-1.56-.94-7.34-1.34c-4.58-.32-17.2-1.15-23.12-1.06-4.39-.09-15,.74-19.59,1.06-5.77.4-7.34,1.34-7.34,1.34a320.64,320.64,0,0,0-8.87,35.78c-3.43,19.73-4.59,30.1,7.65,43.81,10.21,11.45,25,11.2,29.45,11.12,4.65-.08,18.81,2.44,30.39-11.12C177.77,169.05,176.91,158.94,173.48,139.21Z"/><g class="cls-7"><path class="cls-8" d="M92.25,173.44s2.67-8.7,13.82-15.39,19.4-6.69,19.4-6.69-9.09-5.88-2.61-12.52c4.85-5,10,.93,11.08,2.71a9.78,9.78,0,0,1,1.34,2.9s2.56-7.69,6.8-7.91c6.68-.36,8.35,3.58,7.68,8.26s-3.11,5.89-3.11,5.89,12,2.9,19.84,8.25,10,16.73,10,16.73-18.06,23.18-39.25,24.3S92.25,173.44,92.25,173.44Z"/><circle class="cls-6" cx="127.59" cy="143.73" r="2.34"/><circle class="cls-6" cx="142.8" cy="143.56" r="2.34"/></g><rect class="cls-6" x="93.47" y="171.86" width="82.94" height="1.92"/><circle class="cls-9" cx="127.95" cy="128.76" r="5.08"/><circle class="cls-10" cx="127.95" cy="128.76" r="1.6"/><circle class="cls-9" cx="142.83" cy="128.76" r="5.08"/><circle class="cls-10" cx="142.83" cy="128.76" r="1.6"/><path class="cls-11" d="M135.19,54.44c-.73,0-1.34,0-1.77.08-5.32-.05-18.73,1.84-28,20.59s-10.32,30.4-14.26,49.1c-3.64-2.23-9.12-4.37-14.72-2-9.7,4-10.7,14.38-3,17.05a47.86,47.86,0,0,0,13.48,2.72c-.74,2.7-1.54,5.53-2.45,8.54-11.14,37-38.34,68.23-43.25,107.91-1.76,14.27-1.45,29.92-.1,45-4.18-1.24-8.31-1.23-11.49,1.4-10.26,8.47-7.14,39.68-2.23,53.51s14.71,28.09,14.71,28.09-14.71-1.78-19.62,4-.89,13.38,2.23,13.83c2.48.35,50.64.42,72.48-.9h38Z"/></g></g></svg>