<svg xmlns="http://www.w3.org/2000/svg" xmlns:xlink="http://www.w3.org/1999/xlink" viewBox="0 0 262 262"><defs><style>.cls-1{fill:none;}.cls-2{fill:#ffca3c;}.cls-3{clip-path:url(#clip-path);}.cls-4{fill:#818689;}.cls-5{fill:#c1bdbb;}.cls-6{fill:#231f20;}.cls-7,.cls-8{fill:#fff;}.cls-8{opacity:0.2;}</style><clipPath id="clip-path"><circle class="cls-1" cx="131" cy="131" r="102.28"/></clipPath></defs><g id="objects"><circle class="cls-2" cx="131" cy="131" r="102.28"/><g class="cls-3"><path class="cls-4" d="M186.9,194.75a139.17,139.17,0,0,0-3.24-25.3c-1.72-7.16-3.87-25.1-9.68-29.07-3.42-8.65-22-7.7-30.07-5.14-9.28,2.93-12.44,7.24-13.36,13.21-.92-6-4.08-10.28-13.35-13.21-8.09-2.56-26.65-3.51-30.07,5.14-5.82,4-8,21.91-9.69,29.07a141,141,0,0,0-3.24,25.3c-.33,6.6-.8,14.53.45,20.91,2,10.46,15.38,14.74,24.73,16.82,9.86,2.19,20.78,1.84,30.9,1.39.1-.72.18-1.44.27-2.16.1.72.17,1.44.28,2.16,10.12.45,21,.8,30.9-1.39,9.35-2.08,22.69-6.36,24.73-16.82C187.7,209.28,187.23,201.35,186.9,194.75Zm-56.35-32c.23,5.52.18,11.09,0,16.67C130.38,173.87,130.33,168.3,130.55,162.78Z"/><path class="cls-5" d="M175.31,169.8c-1.6-4.34-3.67-7.91-3.12-12.72.52-4.43,2.22-7.83,2.23-12.69-1.27-5.13-13.8-8.37-18.53-8.95-7.32-.9-18.29-1.9-25.34,1.95-7.05-3.85-18-2.85-25.34-1.95-4.73.58-17.25,3.82-18.52,8.95,0,4.86,1.71,8.26,2.22,12.69.56,4.81-1.51,8.38-3.11,12.72C82.15,179.66,87,191,92.94,199.19c7.48,10.31,17.72,19.25,29.84,23.94a20.9,20.9,0,0,0,15.55,0c12.12-4.69,22.36-13.63,29.84-23.94C174.12,191,179,179.66,175.31,169.8Z"/><path class="cls-4" d="M110.3,95.93C107.13,81.41,91.2,68.81,77,68.34,67,68,42.27,78.64,56.7,90.88c-11.39,2.15-10.47,12.46.76,13.3-3.76,6.71-3.23,13.49,6.47,13.78-.51,13.62,23.14,17.77,32.64,12.25C109.34,122.77,105.8,106.41,110.3,95.93Z"/><path class="cls-5" d="M95.69,139.74c14-14.66,13.45-34.79.61-49.27-4.92-5.55-10-10.71-18.16-10.7-7.72,0-12.64,5.29-11.65,13.17.68,5.51,4.9,5.85,4.87,7.53s-2.53,2.86-2.78,6.22c-.43,5.74,2.15,8,7.56,9.73-5.23,9.71,10.6,10.33,16.17,10.48C94.18,131.44,91.68,136.82,95.69,139.74Z"/><path class="cls-4" d="M150.81,95.93c3.17-14.52,19.1-27.12,33.27-27.59,10-.33,34.75,10.3,20.32,22.54,11.4,2.15,10.48,12.46-.75,13.3,3.76,6.71,3.23,13.49-6.47,13.78.51,13.62-23.15,17.77-32.64,12.25C151.77,122.77,155.3,106.41,150.81,95.93Z"/><path class="cls-5" d="M165.41,139.74c-14-14.66-13.44-34.79-.61-49.27,4.92-5.55,10-10.71,18.17-10.7,7.72,0,12.63,5.29,11.65,13.17-.69,5.51-4.9,5.85-4.87,7.53s2.52,2.86,2.77,6.22c.44,5.74-2.14,8-7.55,9.73,5.22,9.71-10.6,10.33-16.17,10.48C166.93,131.44,169.43,136.82,165.41,139.74Z"/><path class="cls-4" d="M180,114.27c-4.76-11-9.47-21.86-18.7-29.94-8.37-7.31-19.7-7.54-30.37-7.54h-.69c-10.67,0-22,.23-30.37,7.54-9.24,8.08-13.94,19-18.7,29.94-3.3,7.59-5.87,19.18-2.87,27.35,3.77,10.26,14.8,16.54,24.55,19.78,8.36,2.78,19,3,27.73,2.55,8.77.42,19.38.23,27.73-2.55,9.76-3.24,20.79-9.52,24.56-19.78C185.84,133.45,183.26,121.86,180,114.27ZM130.55,77c.73.49.46.44,0,.45S129.83,77.51,130.55,77Z"/><path class="cls-6" d="M130.08,139.75c1.49,5.52-2,10.13-7.09,11.94-4.44,1.55-8.56.84-12.69-1.13-.26-.12-.54.2-.32.42,7.19,7.32,25.27-.46,20.54-11.41-.11-.26-.51-.07-.44.18Z"/><circle class="cls-6" cx="109.4" cy="115.43" r="5.83"/><circle class="cls-7" cx="109.4" cy="115.43" r="1.83"/><path class="cls-6" d="M141.68,114.76c-1.63-6.64-4.57-7.67-10.44-7.78h-1.37c-5.87.11-8.81,1.14-10.44,7.78a60.11,60.11,0,0,0-2,16.39c.28,5,2.71,10.85,11,12.32a8.37,8.37,0,0,0,4.14,0c8.3-1.47,10.73-7.27,11-12.32A60.51,60.51,0,0,0,141.68,114.76Z"/><path class="cls-6" d="M131.76,139.57c-4.73,11,13.35,18.73,20.54,11.41.23-.22-.05-.54-.32-.42-4.13,2-8.25,2.68-12.68,1.13-5.15-1.81-8.59-6.42-7.1-11.94.07-.25-.33-.44-.44-.18Z"/><circle class="cls-6" cx="151.7" cy="115.43" r="5.83"/><circle class="cls-7" cx="151.7" cy="115.43" r="1.83"/><path class="cls-8" d="M131.23,76.79h-1C120.84,76.79,111,77,103,82,96.31,74.14,86.3,68.65,77,68.34,67,68,42.27,78.64,56.7,90.88c-11.39,2.15-10.47,12.46.76,13.3-3.76,6.71-3.23,13.49,6.47,13.78-.26,7,5.8,11.45,13.06,13.43a26.08,26.08,0,0,0,1.28,10.23,23.85,23.85,0,0,0,4,6.89c-2.39,7-3.7,16.26-4.83,20.94a141,141,0,0,0-3.24,25.3c-.33,6.6-.8,14.53.45,20.91,2,10.46,15.38,14.74,24.73,16.82,9.86,2.19,20.78,1.84,30.9,1.39.1-.72.18-1.44.27-2.16.1.72.17,1.44.28,2.16l.4,0Zm-.68.68c-.45,0-.72,0,0-.45C131.28,77.51,131,77.46,130.55,77.47Z"/></g></g></svg>