<svg xmlns="http://www.w3.org/2000/svg" xmlns:xlink="http://www.w3.org/1999/xlink" viewBox="0 0 262 262"><defs><style>.cls-1{fill:none;}.cls-2{fill:#bbd64a;}.cls-3{clip-path:url(#clip-path);}.cls-4{fill:#ffac45;}.cls-5{fill:#b85e26;}.cls-6{fill:#ffd5a2;}.cls-7{fill:#1d1d1b;}.cls-8{fill:#231f20;}.cls-10,.cls-9{fill:#fff;}.cls-10{opacity:0.2;}</style><clipPath id="clip-path"><circle class="cls-1" cx="131" cy="134.72" r="102.28"/></clipPath></defs><g id="objects"><circle class="cls-2" cx="131" cy="134.72" r="102.28"/><g class="cls-3"><path class="cls-4" d="M179.51,215.35A116.83,116.83,0,0,0,166,166.76c-9.27-.82-28.21-4.59-35.08,3.37-6.87-8-25.8-4.19-35.07-3.37a117,117,0,0,0-13.48,48.59c-.22,4.46-1.28,11.67,0,15.92,1.49,4.91,9,4.32,13.49,6.32,5.23,2.31,9.86,4.43,15.63,5.44,4.7.82,14.44,1.48,19.43-1,5,2.47,14.74,1.81,19.43,1,5.77-1,10.41-3.13,15.64-5.44,4.51-2,12-1.41,13.48-6.32C180.8,227,179.73,219.81,179.51,215.35Z"/><ellipse class="cls-5" cx="131.15" cy="135.21" rx="80" ry="79.38"/><circle class="cls-4" cx="98.71" cy="96.76" r="11.76"/><circle class="cls-6" cx="98.71" cy="96.76" r="7.17"/><path class="cls-4" d="M144.1,163.43a95.18,95.18,0,0,0-9.47-9.15c-1.51-1.33-2.56-1.93-3.67-.44-1.11-1.49-2.16-.89-3.67.44a94,94,0,0,0-9.46,9.15c-2.2,2.59-7.88,7.76-6.43,10.88.56,3.66,5.84,6.21,9,7.2A33.59,33.59,0,0,0,131,182.9a33.59,33.59,0,0,0,10.58-1.39c3.15-1,8.43-3.54,9-7.2C152,171.19,146.3,166,144.1,163.43Z"/><path class="cls-6" d="M131.92,89.08c-7.86.15-17.19-1.68-24.19,2-5.08,2.67-8.79,9.2-11,14.18-4.43,9.75-6.9,22.79-9.16,33.14-3,13.6-6.18,34.06,12.25,37.05,5.67.93,12.86,2.15,19.59-.91,5.34-2.43,9.9-6.6,11.65-12.25,1.25-4.05.91-9.09.91-13.41,0-9.69-.09-19.47-.87-29.09C130.22,109.42,131.85,99.51,131.92,89.08Z"/><circle class="cls-4" cx="163.22" cy="96.76" r="11.76"/><circle class="cls-6" cx="163.22" cy="96.76" r="7.17"/><path class="cls-6" d="M130,89.08c7.85.15,17.18-1.68,24.18,2,5.09,2.67,8.8,9.2,11.05,14.18,4.43,9.75,6.91,22.79,9.17,33.14,3,13.6,6.17,34.06-12.25,37.05-5.68.93-12.86,2.15-19.6-.91-5.33-2.43-9.89-6.6-11.64-12.25-1.25-4.05-.92-9.09-.91-13.41,0-9.69.09-19.47.86-29.09C131.71,109.42,130.08,99.51,130,89.08Z"/><path class="cls-4" d="M165.24,105.24c-2.25-5-6-11.51-11.05-14.18-6.46-3.38-14.89-2.08-22.33-2h-1.79c-7.44-.1-15.88-1.4-22.34,2-5.08,2.67-8.79,9.2-11,14.18-.56,1.23-1.09,2.52-1.59,3.84a24.75,24.75,0,0,1,8.66,3.27c7.93,4.59,12.57,10,16.3,18.38s4.64,17.42,7.33,26c.89.15,1.79.34,2.69.49a1.34,1.34,0,0,0,0,.2c.3,0,.59-.05.88-.08s.59.07.88.08a1.34,1.34,0,0,0,0-.2c.91-.15,1.8-.34,2.7-.49,2.69-8.56,3.54-17.44,7.32-26s8.37-13.79,16.31-18.38a24.7,24.7,0,0,1,8.65-3.27C166.33,107.76,165.8,106.47,165.24,105.24Z"/><path class="cls-7" d="M119.38,159.19C101,160.37,84.71,169.8,69.21,179a.61.61,0,0,0,.62,1.05c15.3-9.11,31.36-18.51,49.55-19.67.78,0,.79-1.28,0-1.23Z"/><path class="cls-7" d="M119,154.21a118.35,118.35,0,0,0-47.36,3.55.61.61,0,0,0,.32,1.18,117.31,117.31,0,0,1,47-3.5c.78.1.77-1.13,0-1.23Z"/><path class="cls-7" d="M121.88,162.77a156.77,156.77,0,0,0-36.72,29.92c-.53.58.34,1.45.87.86a155.42,155.42,0,0,1,36.47-29.72.61.61,0,0,0-.62-1.06Z"/><circle class="cls-8" cx="111.25" cy="135.01" r="5.34"/><circle class="cls-9" cx="111.25" cy="135.01" r="1.68"/><path d="M131,153.23c-3.07-.85-9.29-1.63-7,2.92,1,2,6.74,6.78,7,6.69.21.09,5.95-4.73,6.95-6.69C140.25,151.6,134,152.38,131,153.23Z"/><path class="cls-7" d="M142.55,160.42c18.19,1.16,34.25,10.56,49.55,19.67a.61.61,0,0,0,.62-1.05c-15.51-9.24-31.75-18.67-50.17-19.85-.79-.05-.79,1.18,0,1.23Z"/><path class="cls-7" d="M142.9,155.44a117.25,117.25,0,0,1,47,3.5.61.61,0,0,0,.33-1.18,118.35,118.35,0,0,0-47.36-3.55c-.78.1-.79,1.33,0,1.23Z"/><path class="cls-7" d="M139.43,163.83a155.83,155.83,0,0,1,36.47,29.72c.53.59,1.39-.28.86-.86a156.72,156.72,0,0,0-36.71-29.92.61.61,0,0,0-.62,1.06Z"/><circle class="cls-8" cx="150.67" cy="135.01" r="5.34"/><circle class="cls-9" cx="150.67" cy="135.01" r="1.68"/><path class="cls-10" d="M130.59,55.84c-43.92.31-79.44,35.72-79.44,79.37a79.06,79.06,0,0,0,33.17,64.34,113.26,113.26,0,0,0-1.91,15.8c-.22,4.46-1.28,11.67,0,15.92,1.49,4.91,9,4.32,13.49,6.32,5.23,2.31,9.86,4.43,15.63,5.44,4.59.8,14,1.44,19.06-.83Z"/></g></g></svg>