<svg xmlns="http://www.w3.org/2000/svg" xmlns:xlink="http://www.w3.org/1999/xlink" viewBox="0 0 262 262"><defs><style>.cls-1,.cls-9{fill:none;}.cls-2{fill:#4dcdff;}.cls-3{clip-path:url(#clip-path);}.cls-4{fill:#b85e26;}.cls-10,.cls-5{fill:#fff;}.cls-6{fill:#ffac45;}.cls-7{fill:#ffc57d;}.cls-8{fill:#231f20;}.cls-9{stroke:#b85e26;stroke-linecap:round;stroke-linejoin:round;stroke-width:1.22px;}.cls-10{opacity:0.2;}</style><clipPath id="clip-path"><circle class="cls-1" cx="131" cy="131" r="102.28"/></clipPath></defs><g id="objects"><circle class="cls-2" cx="131" cy="131" r="102.28"/><g class="cls-3"><ellipse class="cls-4" cx="171.81" cy="80.05" rx="18.72" ry="19.16"/><ellipse class="cls-5" cx="169.49" cy="83.09" rx="10.64" ry="10.89"/><ellipse class="cls-4" cx="87.9" cy="80.05" rx="18.72" ry="19.16"/><ellipse class="cls-5" cx="90.22" cy="83.09" rx="10.64" ry="10.89"/><path class="cls-6" d="M183.83,214.4c-.45-9.74-1.15-15.94-2.45-25.64-1.19-9-6.38-20.45-11-27.77-3.18-5.67-11.89-5.77-19.28-6.44-5.23-.47-13,.72-17.08,4.29a17.18,17.18,0,0,0-4.14,5.31,17.18,17.18,0,0,0-4.14-5.31c-4-3.57-11.85-4.76-17.09-4.29-7.39.67-16.1.77-19.28,6.44-4.63,7.32-9.83,18.8-11,27.77-1.29,9.7-2,15.9-2.45,25.64a107.56,107.56,0,0,0,.41,18c.52,4.2.63,4.34,5.29,4.91a143.79,143.79,0,0,0,17.37.8c9.18,0,21.22,1.11,30.91.91,9.68.2,21.72-.93,30.91-.91a143.79,143.79,0,0,0,17.37-.8c4.65-.57,4.76-.71,5.29-4.91A108.63,108.63,0,0,0,183.83,214.4Z"/><path class="cls-7" d="M100.58,210.81c0-16.63,16.58-35.39,25.62-42.13a4.34,4.34,0,0,1,5.13,0c9,6.74,25.62,25.5,25.62,42.13,0,3.91.23,9-4.45,10.24-4.9,1.3-8.41-4-11.48-6.75-.66,4.76.5,9.17-2.57,13.39-2.11,2.89-6,5.22-9.57,5.1h0a.48.48,0,0,0-.12,0,.48.48,0,0,0-.12,0h0c-3.56.12-7.46-2.21-9.56-5.1-3.07-4.22-1.91-8.63-2.57-13.39-3.08,2.71-6.58,8-11.48,6.75C100.34,219.81,100.58,214.72,100.58,210.81Z"/><path class="cls-6" d="M129.29,68.44s11-1.16,24.67,4.06,20.32,14.8,25,23.51,6.1,21.48,6.1,21.48,14.8,5.8,20.31,10.16l5.52,4.35-16.25,4.64s7,8.42,9,11a23.89,23.89,0,0,1,2.91,4.65H192.85s6.1,9.57,7.26,14.51a33.24,33.24,0,0,1,.87,9,77.08,77.08,0,0,0-29.6-4.35c-16.55.87-27,11.61-33.38,14.22s-8.71,2-8.71,2Z"/><path class="cls-6" d="M130.42,68.44s-11-1.16-24.67,4.06S85.44,87.3,80.79,96s-6.09,21.48-6.09,21.48-14.8,5.8-20.32,10.16L48.87,132l16.25,4.64s-7,8.42-9,11a23.48,23.48,0,0,0-2.9,4.65H66.86s-6.09,9.57-7.25,14.51a33,33,0,0,0-.88,9,77.1,77.1,0,0,1,29.61-4.35c16.54.87,27,11.61,33.37,14.22s8.71,2,8.71,2Z"/><path class="cls-5" d="M200.11,166.83c-.94-4-5.12-11-6.67-13.57-13.47-15.41-42-17.7-63.58-16.81-21.59-.89-50.12,1.4-63.58,16.81-1.56,2.53-5.73,9.57-6.67,13.57a33,33,0,0,0-.88,9,77.1,77.1,0,0,1,29.61-4.35c16.54.87,27,11.61,33.37,14.22,4.64,1.9,7.13,2.11,8.15,2.08s3.5-.18,8.14-2.08c6.39-2.61,16.83-13.35,33.38-14.22a77.08,77.08,0,0,1,29.6,4.35A33.24,33.24,0,0,0,200.11,166.83Z"/><path d="M170.15,120.27c.06-2.5,4-6.43,5.39-8.5,1.73-2.55,3.75-5,5.65-7.4.22-.27.47-.65.76-1a82.69,82.69,0,0,1,2.56,10.7c-2.29,1.38-5.46,2.32-7,3.1C175.09,118.35,172.57,119.29,170.15,120.27Z"/><path d="M168,106.91c.25-1.72,8-9.46,10.77-11.15l.13.25a40.94,40.94,0,0,1,2.35,5.4c-1.86,1.1-4.32,1.87-6,2.68C173.18,105.11,170.35,106.82,168,106.91Z"/><path d="M138,95.46a186.28,186.28,0,0,1-3.31-19.87c-.31-2.25-.52-4.82-.91-7.23a60.16,60.16,0,0,1,10.83,1.36,90.2,90.2,0,0,1-3,14.21C140.64,87.75,139.79,91.94,138,95.46Z"/><circle class="cls-8" cx="149.14" cy="126.28" r="5.34"/><circle class="cls-5" cx="149.14" cy="126.28" r="1.68"/><path class="cls-8" d="M130.14,147c1.72,0,7.49-.7,8.39,1.07,1,1.93-3.3,5.7-4.53,6.62a15.32,15.32,0,0,1-3.71,1.9C129.34,153.92,130.74,150.1,130.14,147Z"/><path class="cls-8" d="M129.92,155.79c-.55,6.06,1.59,12.69,7.5,15.37,5.5,2.49,13.75,1.31,18.48-2.31.63-.48-.17-1.41-.79-.93-4.24,3.24-11.57,4.26-16.59,2.37-5.8-2.18-7.88-8.59-7.4-14.28.07-.78-1.13-1-1.2-.22Z"/><path class="cls-9" d="M145.47,147.69a102.59,102.59,0,0,1,52.08,8.77"/><path class="cls-9" d="M145.42,153.51a162.23,162.23,0,0,1,61.81,21.56"/><path class="cls-9" d="M144.51,158.47a155.61,155.61,0,0,1,62.56,45"/><path d="M89.56,120.27c-.06-2.5-4-6.43-5.39-8.5-1.72-2.55-3.75-5-5.64-7.4-.22-.27-.48-.65-.76-1a83,83,0,0,0-2.57,10.7c2.3,1.38,5.46,2.32,7,3.1C84.63,118.35,87.14,119.29,89.56,120.27Z"/><path d="M91.7,106.91c-.26-1.72-8-9.46-10.77-11.15l-.14.25a40.94,40.94,0,0,0-2.35,5.4c1.87,1.1,4.33,1.87,6,2.68C86.53,105.11,89.36,106.82,91.7,106.91Z"/><path d="M121.72,95.46A188.84,188.84,0,0,0,125,75.59c.3-2.25.51-4.82.91-7.23a60.06,60.06,0,0,0-10.83,1.36,89.09,89.09,0,0,0,3,14.21C119.08,87.75,119.92,91.94,121.72,95.46Z"/><circle class="cls-8" cx="111.58" cy="126.28" r="5.34"/><circle class="cls-5" cx="111.58" cy="126.28" r="1.68"/><path class="cls-8" d="M131.08,146.91c-1.72,0-9-.65-9.9,1.12-1,1.93,3.31,5.7,4.53,6.62a22.05,22.05,0,0,0,4.45,2.29C131.1,154.31,130.48,150,131.08,146.91Z"/><path class="cls-8" d="M128.58,156c.52,5.73-1.59,12.19-7.43,14.36-5,1.88-12.36.81-16.59-2.43-.62-.48-1.32.53-.7,1,4.71,3.6,13,4.77,18.48,2.25,5.87-2.71,8-9.25,7.46-15.3a.61.61,0,0,0-1.22.11Z"/><path class="cls-9" d="M114.24,147.69a102.55,102.55,0,0,0-52.07,8.77"/><path class="cls-9" d="M114.3,153.51a162.28,162.28,0,0,0-61.82,21.56"/><path class="cls-9" d="M115.21,158.47a155.47,155.47,0,0,0-62.56,45"/><path class="cls-10" d="M129.37,68.37a46.71,46.71,0,0,0-5.25.08l-.53,0-.85.07c-.21,0-.42,0-.63.06l-.92.09-.63.08c-.57.07-1.16.16-1.77.25l-.74.12-1.06.19-.8.15a64,64,0,0,0-10.44,3l-.55.23A18.72,18.72,0,0,0,87.9,60.89,18.94,18.94,0,0,0,69.18,80.05a19.15,19.15,0,0,0,10.9,17.38c-.19.4-.37.8-.55,1.2v0c-.39.9-.75,1.82-1.09,2.75h0c-.24.66-.46,1.32-.67,2h0a73.74,73.74,0,0,0-1.89,7.19h0c-.09.43-.18.84-.26,1.24v0c-.65,3.31-.91,5.61-.91,5.61s-14.8,5.8-20.32,10.16L48.87,132l16.25,4.64s-7,8.42-9,11a23.48,23.48,0,0,0-2.9,4.65H66.86s-.24.37-.62,1c-.1.15-.2.32-.31.5l-.15.25-.13.23c-1.26.51-2.5,1-3.74,1.6a.62.62,0,0,0-.3.82.61.61,0,0,0,.56.35.56.56,0,0,0,.25,0c.73-.33,1.46-.64,2.19-1l-.21.36-.14.25c-.18.32-.37.65-.56,1l-.14.25-.44.8-.2.38c-.13.24-.26.48-.38.73l-.21.4c-.14.26-.27.53-.4.79l-.16.32c-.18.37-.36.74-.53,1.11,0,.06-.05.11-.07.16l-.41.92c0,.12-.09.23-.14.34s-.2.48-.29.72l-.14.36c-.08.23-.16.45-.23.67s-.07.21-.1.31a8.76,8.76,0,0,0-.25.9c-.15.61-.27,1.22-.38,1.8-.13.74-.22,1.44-.3,2.1q-3.43,1.83-6.76,3.82a.61.61,0,0,0,.31,1.14.62.62,0,0,0,.32-.09q3-1.77,6-3.4c0,.11,0,.23,0,.33s0,.44,0,.65c0,.4,0,.77,0,1.1v.45c0,.7,0,1.09,0,1.09a57.27,57.27,0,0,1,6.7-2l.93-.22c.63-.15,1.3-.31,2-.45a79.49,79.49,0,0,1,8.37-1.32c.89-.09,1.8-.17,2.73-.23,1.4-.1,2.84-.16,4.32-.17h0q-1,2.1-1.82,4.28A155.53,155.53,0,0,0,52.18,203.1a.61.61,0,0,0,.08.86.57.57,0,0,0,.39.14.6.6,0,0,0,.47-.22,154.26,154.26,0,0,1,28.1-26.18,54.75,54.75,0,0,0-2.89,11.06c-1.29,9.7-2,15.9-2.45,25.64a107.56,107.56,0,0,0,.41,18c.52,4.2.63,4.34,5.29,4.91a143.79,143.79,0,0,0,17.37.8c9,0,20.82,1.06,30.42.91Z"/></g></g></svg>